<svg version="1.1" id="Layer_1" xmlns="http://www.w3.org/2000/svg" xmlns:xlink="http://www.w3.org/1999/xlink" x="0px" y="0px"
	 width="100%" viewBox="0 0 2147 567" enable-background="new 0 0 2147 567" xml:space="preserve">
<path fill="#FFFFFF" opacity="1.000000" stroke="none" 
	d="
M2148.000000,425.000000 
	C2148.000000,472.656464 2148.000000,520.312927 2148.000000,568.000000 
	C1513.645752,568.000000 879.291565,568.000000 244.596161,567.676025 
	C248.302521,564.150818 249.009872,559.694275 249.008194,554.924072 
	C248.993881,514.266113 249.000000,473.608093 249.000000,432.950104 
	C249.000000,431.044830 249.000000,429.139557 249.000000,426.753693 
	C493.033386,426.753693 736.169861,426.753693 980.347839,426.753693 
	C963.541992,411.732513 957.618835,393.562714 957.827454,372.393188 
	C958.042175,350.608398 966.353088,333.636444 985.253235,321.318787 
	C750.534363,321.318787 516.980591,321.318787 283.117249,321.318787 
	C283.031586,323.240814 282.899994,324.869476 282.896240,326.498413 
	C282.875519,335.496429 282.829590,344.494995 282.900574,353.492493 
	C282.981659,363.761139 277.087158,369.321289 267.464447,369.177429 
	C242.977676,368.811401 218.480637,369.132446 193.746277,369.193848 
	C193.171051,369.366821 193.015427,369.629883 192.989899,370.465149 
	C192.930374,395.216583 192.958984,419.501404 192.888855,443.785919 
	C192.858643,454.249115 188.039581,458.991180 177.721024,459.010956 
	C172.731003,459.020508 167.740967,459.013306 162.750931,459.013428 
	C155.992111,459.013580 149.233307,459.013489 142.313522,459.013489 
	C142.170944,460.646271 142.013306,461.611908 142.012909,462.577606 
	C141.999466,494.513794 141.858643,526.451538 142.219070,558.383728 
	C142.255447,561.606689 145.333511,564.795410 147.000000,568.000000 
	C98.406349,568.000000 49.812691,568.000000 1.000000,568.000000 
	C1.000000,519.645996 1.000000,471.291656 1.308667,422.634064 
	C3.926950,426.286652 7.667761,427.018188 11.835472,427.014648 
	C43.331310,426.987793 74.827187,427.004486 106.323044,426.987915 
	C108.073311,426.987000 109.823479,426.811523 111.499657,426.721252 
	C111.499657,407.211823 111.499657,388.314423 111.499657,369.040802 
	C109.288422,369.040802 107.477882,369.040863 105.667343,369.040802 
	C82.337074,369.040009 59.006775,369.055267 35.676594,369.009338 
	C33.716640,369.005493 31.630465,368.946442 29.821701,368.300476 
	C24.304787,366.330200 21.983892,362.744476 21.949230,356.393585 
	C21.885847,344.780426 21.931192,333.166656 21.931192,321.000000 
	C18.201143,321.000000 15.059827,321.234955 11.967638,320.945374 
	C7.236736,320.502289 3.552219,321.917297 1.000000,326.000000 
	C1.000000,217.746078 1.000000,109.492157 1.000000,1.000000 
	C91.354088,1.000000 181.708389,1.000000 272.531342,1.468657 
	C272.999786,96.905411 273.029907,191.873566 272.908264,286.841492 
	C272.902283,291.514160 273.983124,293.134827 278.966553,293.111603 
	C320.951447,292.915680 362.938141,293.105499 404.923065,292.911926 
	C413.435699,292.872681 421.669281,290.887787 429.551178,287.206238 
	C445.715179,279.656281 458.987457,268.694946 469.191254,254.182648 
	C477.121277,242.904190 482.740204,230.645187 482.003845,216.332001 
	C481.647339,209.402588 481.798309,202.409042 480.887909,195.554993 
	C479.507324,185.161179 476.897186,174.967194 470.675903,166.273117 
	C465.832336,159.504364 460.411621,153.148605 454.946167,146.227890 
	C457.180634,144.095428 459.703583,141.914688 461.963806,139.489136 
	C469.499390,131.402222 475.913361,122.666084 479.028198,111.769478 
	C482.306152,100.302284 482.500092,88.590950 481.826477,76.921089 
	C481.437042,70.174484 480.026978,63.280643 477.819733,56.886856 
	C472.801392,42.350235 464.234009,29.876390 451.896027,20.655661 
	C444.653259,15.242820 436.605164,10.594954 428.315765,6.991428 
	C421.329254,3.954293 413.471893,2.920543 406.000000,1.000001 
	C465.354218,1.000000 524.708435,1.000000 584.324097,1.377913 
	C571.057739,1.937629 557.794434,3.886594 544.925049,8.083750 
	C520.459595,16.062784 504.404785,32.420361 496.515198,56.912689 
	C492.962891,67.940369 492.739380,79.256920 492.988068,90.660141 
	C493.238007,102.120277 495.674103,113.190994 500.903320,123.265747 
	C505.434875,131.996384 511.346222,140.010834 516.359863,147.889481 
	C512.226440,153.780273 506.897919,159.954559 503.160187,166.975708 
	C493.183716,185.716049 490.691925,205.611816 494.870605,226.585037 
	C498.586639,245.236221 508.038757,260.296356 522.669373,271.720184 
	C541.243774,286.223480 563.162903,291.778625 586.455994,291.954895 
	C612.452637,292.151611 638.451904,291.998810 664.450073,292.003113 
	C665.949158,292.003357 667.448303,292.068298 668.947388,292.069214 
	C679.155945,292.075378 689.364502,292.072418 699.665649,292.072418 
	C699.665649,277.398376 699.665649,262.346313 699.665649,247.000000 
	C697.522461,247.000000 695.711548,247.000000 693.900635,247.000000 
	C657.403198,247.000000 620.905762,247.028702 584.408447,246.956833 
	C580.645996,246.949417 576.854370,246.543213 573.127747,245.980713 
	C547.935791,242.178146 533.177185,213.159790 547.629211,189.055420 
	C554.940186,176.861481 566.632629,171.181381 580.704102,171.059189 
	C605.200562,170.846466 629.700134,171.000000 654.198425,171.000000 
	C655.982422,171.000000 657.766479,171.000000 659.685303,171.000000 
	C659.685303,153.771774 659.685303,137.053314 659.685303,120.000008 
	C657.567688,120.000008 655.761902,120.000015 653.956116,120.000015 
	C630.124451,120.000015 606.292725,120.032936 582.461304,119.957687 
	C579.530579,119.948441 576.606201,119.311401 573.671265,119.049698 
	C554.331848,117.325188 539.209778,100.210922 540.904419,80.110466 
	C541.820557,69.243782 546.414429,60.605804 554.817749,54.118755 
	C563.571167,47.361446 574.060364,45.128059 584.836731,45.072182 
	C621.333130,44.882942 657.831177,44.999981 694.328552,44.999977 
	C696.100098,44.999977 697.871582,44.999977 700.000000,44.999977 
	C700.000000,29.935097 700.000000,15.467548 700.000000,1.000000 
	C706.354431,1.000000 712.708801,1.000000 719.531616,1.468657 
	C720.000000,98.849693 720.000000,195.762070 720.000000,292.621490 
	C736.027527,292.621490 751.412659,292.621490 767.173157,292.621490 
	C767.173157,245.037491 767.173157,197.830902 767.173157,150.624329 
	C767.560852,150.363510 767.948608,150.102692 768.336304,149.841873 
	C768.811768,150.697800 769.218628,151.601089 769.772644,152.402710 
	C781.752380,169.734924 793.779480,187.034500 805.734558,204.383682 
	C825.192810,232.621353 844.612915,260.885284 864.026123,289.153931 
	C865.703369,291.596283 867.538208,293.114990 870.864014,293.077057 
	C886.192566,292.902100 901.524231,293.009491 916.854675,292.977356 
	C917.881165,292.975220 918.906921,292.656372 920.223450,292.436249 
	C891.055542,251.857880 862.195801,211.708252 833.685608,172.044815 
	C841.449951,170.374146 849.259094,169.366318 856.622925,166.982803 
	C878.391724,159.936844 894.776306,145.957336 907.115417,126.787331 
	C916.774841,111.780540 920.781372,95.399040 918.823364,77.941925 
	C916.888184,60.688961 910.626892,44.632236 900.621704,30.396975 
	C891.529968,17.461445 880.437805,6.698889 864.348267,2.710109 
	C862.221558,2.182863 860.115601,1.572091 858.000000,1.000000 
	C885.687561,1.000000 913.375122,1.000000 941.531372,1.468657 
	C942.000000,98.861023 942.000000,195.784729 942.000000,292.601685 
	C957.730652,292.601685 972.784912,292.601685 988.184937,292.601685 
	C988.184937,211.408997 988.184937,130.614151 988.184937,48.498333 
	C1012.859680,130.831024 1037.141602,211.852737 1061.461060,293.000000 
	C1076.218140,293.000000 1090.718628,292.676666 1105.190552,293.176788 
	C1110.201538,293.349945 1111.793213,291.255066 1112.940186,287.233582 
	C1121.602783,256.859711 1130.306641,226.497513 1139.048462,196.146286 
	C1145.671875,173.149734 1152.399658,150.183228 1159.024780,127.187164 
	C1163.756592,110.762917 1168.333252,94.293755 1173.100952,77.880020 
	C1175.754639,68.743622 1178.657959,59.679729 1181.448853,50.583160 
	C1181.682739,50.623425 1181.916748,50.663685 1182.150635,50.703949 
	C1182.150635,131.306381 1182.150635,211.908798 1182.150635,292.700134 
	C1197.196533,292.700134 1211.915649,292.700134 1227.000000,292.700134 
	C1227.000000,195.267166 1227.000000,98.133583 1227.000000,1.000000 
	C1233.687622,1.000000 1240.375366,1.000000 1247.531494,1.468657 
	C1248.000000,70.574074 1247.981323,139.210846 1248.046509,207.847549 
	C1248.050415,211.943481 1248.275757,216.139801 1249.166992,220.117096 
	C1253.305054,238.583511 1262.463013,253.865875 1277.325195,266.000092 
	C1299.462646,284.074249 1325.133301,291.903290 1353.061768,292.783997 
	C1363.642334,293.117645 1374.461670,291.844971 1384.889160,289.835968 
	C1406.638184,285.645752 1425.420166,275.846069 1440.070068,258.570618 
	C1455.115845,240.828186 1461.632446,219.940659 1461.813477,197.412872 
	C1462.339722,131.945648 1462.000000,66.471458 1462.000000,1.000000 
	C1468.021118,1.000000 1474.042358,1.000000 1480.531738,1.468657 
	C1481.000000,98.846031 1481.000000,195.754745 1481.000000,292.839661 
	C1482.593018,292.911377 1483.567627,292.993469 1484.542236,292.993622 
	C1527.698608,293.000244 1570.855469,293.091583 1614.010742,292.878265 
	C1619.145264,292.852905 1624.404053,291.613434 1629.377686,290.158752 
	C1647.039429,284.993134 1661.389648,274.826141 1672.982056,260.571564 
	C1683.003174,248.249222 1689.118652,234.649033 1689.060181,218.394104 
	C1688.890259,171.239288 1689.027710,124.083427 1688.956177,76.928123 
	C1688.949219,72.332054 1688.816895,67.638855 1687.915039,63.157326 
	C1682.214600,34.831123 1666.103638,15.082211 1638.811035,5.002719 
	C1633.739746,3.129815 1628.280273,2.307305 1623.000000,1.000004 
	C1681.354248,1.000000 1739.708496,1.000000 1798.329346,1.374705 
	C1781.490479,2.549623 1765.380859,6.662972 1750.644775,15.711962 
	C1738.379883,23.243334 1729.260498,33.607773 1723.294312,46.528679 
	C1715.151001,64.165138 1714.024170,82.873711 1717.102783,101.758354 
	C1720.023560,119.673859 1726.972534,135.807022 1741.195312,148.434296 
	C1731.480591,156.684387 1725.380005,167.297836 1720.979980,178.945999 
	C1715.630371,193.108368 1714.661499,207.727768 1716.997070,222.622070 
	C1720.268921,243.486877 1730.130249,260.487915 1747.191162,272.995209 
	C1765.692139,286.558167 1786.902222,291.814758 1809.499756,291.958160 
	C1837.164307,292.133728 1864.830688,291.998810 1892.496338,292.003235 
	C1893.995361,292.003479 1895.496582,292.009186 1896.993164,292.082916 
	C1905.524658,292.503326 1914.054932,292.945129 1922.648438,293.382843 
	C1922.648438,277.363678 1922.648438,262.310883 1922.648438,247.000000 
	C1920.482544,247.000000 1918.666992,247.000000 1916.851440,247.000000 
	C1879.352905,247.000000 1841.853882,247.111954 1804.356079,246.948822 
	C1787.706055,246.876389 1775.087280,239.921326 1768.015259,224.192108 
	C1762.160522,211.170578 1765.092896,193.833191 1774.854858,183.417740 
	C1783.332886,174.372345 1793.801880,171.244843 1805.376953,171.094223 
	C1829.371948,170.781982 1853.373901,171.000000 1877.372925,171.000000 
	C1879.140259,171.000000 1880.907471,171.000000 1882.622925,171.000000 
	C1882.622925,153.645767 1882.622925,136.926132 1882.622925,120.000000 
	C1855.925049,120.000000 1829.598877,120.299614 1803.284180,119.882225 
	C1788.627075,119.649734 1776.241821,114.304245 1768.306519,100.904762 
	C1760.299194,87.383820 1762.442139,70.014938 1772.708496,58.721817 
	C1782.212280,48.267689 1794.685181,45.252773 1807.832520,45.123978 
	C1844.327515,44.766460 1880.828369,44.999981 1917.326904,44.999977 
	C1919.098633,44.999977 1920.870361,44.999977 1923.000000,44.999977 
	C1923.000000,29.935801 1923.000000,15.467900 1923.000000,1.000000 
	C1929.354370,1.000000 1935.708862,1.000000 1942.531616,1.468657 
	C1943.000000,16.197695 1943.000000,30.458073 1943.000000,45.084900 
	C1994.225586,45.084900 2044.778320,45.084900 2095.430176,45.084900 
	C2095.255859,45.751053 2095.259521,46.099373 2095.093262,46.319641 
	C2082.676270,62.778778 2070.295410,79.265434 2057.804932,95.668747 
	C2039.359741,119.891869 2020.787231,144.018021 2002.359863,168.254578 
	C1984.833496,191.306244 1967.623779,214.602341 1949.832764,237.446671 
	C1944.908691,243.769547 1942.314453,249.939560 1942.841919,258.056091 
	C1943.500000,268.178864 1942.988525,278.376923 1943.012939,288.542419 
	C1943.016357,289.968536 1943.194946,291.394226 1943.236328,292.000000 
	C2011.835938,292.000000 2079.917969,292.000000 2148.000000,292.000000 
	C2148.000000,317.687561 2148.000000,343.375122 2147.650391,369.385925 
	C2146.155029,362.105530 2141.638428,357.208679 2134.509521,355.072540 
	C2122.924805,351.601410 2111.776123,353.305969 2100.886719,358.430267 
	C2097.394775,360.073517 2096.680664,362.980194 2096.235596,365.827789 
	C2095.586914,369.977539 2098.488037,371.620026 2102.359863,369.947876 
	C2106.960938,367.960693 2111.517822,365.641235 2116.336914,364.445526 
	C2122.543945,362.905365 2129.158203,363.703003 2132.624023,369.535797 
	C2134.919678,373.399567 2134.807861,378.693726 2135.790283,383.427399 
	C2127.462158,384.012268 2120.303223,383.859039 2113.409912,385.138153 
	C2099.791504,387.665192 2093.432129,393.621887 2093.168457,405.111908 
	C2092.773926,422.289612 2105.979736,428.736542 2120.584229,426.488831 
	C2126.201904,425.624268 2131.415771,422.134979 2136.173340,420.113586 
	C2137.051025,421.763245 2137.763184,425.157623 2139.375244,425.659210 
	C2141.934082,426.455292 2145.094238,425.318848 2148.000000,425.000000 
M187.938110,362.105804 
	C214.092514,362.097687 240.246933,362.091736 266.401337,362.080231 
	C274.228851,362.076813 275.814240,360.544067 275.819092,352.924774 
	C275.829437,336.598846 275.830719,320.272888 275.817657,303.946960 
	C275.812286,297.232971 273.615021,295.044281 266.896667,295.042236 
	C241.741409,295.034637 216.586151,295.039062 191.430893,295.039001 
	C189.668121,295.038971 187.905365,295.038971 185.868896,295.038971 
	C185.868896,292.548096 185.868912,290.734741 185.868896,288.921417 
	C185.868622,263.766144 185.878876,238.610886 185.860291,213.455643 
	C185.855896,207.504318 183.401016,205.080124 177.407730,205.073196 
	C160.915222,205.054108 144.422684,205.063904 127.930161,205.067276 
	C119.216652,205.069046 118.813599,205.448471 118.810326,213.946320 
	C118.800629,239.101578 118.806557,264.256836 118.806374,289.412079 
	C118.806358,291.180511 118.806366,292.948914 118.806366,295.038971 
	C116.328087,295.038971 114.513878,295.039001 112.699669,295.039001 
	C87.377815,295.039032 62.055962,295.032440 36.734116,295.043304 
	C29.504412,295.046417 28.874119,295.629059 28.863132,302.576202 
	C28.835737,319.901642 28.832544,337.227173 28.863865,354.552582 
	C28.876337,361.451447 29.481548,362.065277 36.258980,362.071503 
	C61.913994,362.094971 87.569038,362.081329 113.224068,362.081573 
	C114.976219,362.081573 116.728371,362.081573 118.806366,362.081573 
	C118.806366,364.475983 118.806351,366.119293 118.806366,367.762634 
	C118.806557,393.084503 118.797409,418.406342 118.812462,443.728210 
	C118.817131,451.584412 119.278709,452.043121 126.906815,452.047974 
	C143.232742,452.058380 159.558670,452.052917 175.884598,452.050659 
	C184.534088,452.049438 185.851013,450.701355 185.871323,441.955139 
	C185.932419,415.638947 186.004745,389.322784 186.460663,362.844971 
	C186.711563,362.697754 186.894302,362.490448 187.938110,362.105804 
M192.908249,259.500000 
	C192.908249,268.909149 192.908249,278.318298 192.908249,287.704224 
	C212.020294,287.704224 230.260742,287.704224 249.000000,287.704224 
	C249.000000,279.428741 249.000031,271.473785 249.000015,263.518860 
	C248.999939,239.702164 249.033340,215.885406 248.982132,192.068817 
	C248.963455,183.385452 245.697571,179.065048 238.843475,179.042236 
	C209.864059,178.945801 180.884048,178.968155 151.904465,179.035934 
	C147.165451,179.047012 143.237808,181.205261 142.279663,186.007645 
	C141.528793,189.771103 142.129089,193.804138 142.129089,197.501038 
	C143.131439,197.799316 143.445679,197.973694 143.760544,197.974808 
	C154.585266,198.012848 165.410065,198.038467 176.234848,198.057404 
	C188.005997,198.078018 192.897049,202.896225 192.905579,214.530731 
	C192.916321,229.187149 192.908112,243.843582 192.908249,259.500000 
M1993.005859,404.290802 
	C1993.293945,405.050171 1993.705444,405.786530 1993.851929,406.572327 
	C1997.446411,425.860870 2017.570923,431.391388 2031.843384,423.535797 
	C2035.333740,421.614685 2038.376221,418.879669 2042.000000,416.246124 
	C2042.000000,417.938843 2042.155273,419.249664 2041.971924,420.511200 
	C2041.318237,425.008606 2043.324585,426.083313 2047.612671,426.155396 
	C2052.256836,426.233429 2053.108643,424.437988 2053.080078,420.278931 
	C2052.915283,396.460297 2053.000000,372.639923 2053.000000,348.820160 
	C2053.000000,341.657562 2052.887207,334.492401 2053.050781,327.333527 
	C2053.124512,324.106018 2051.999023,322.973114 2048.724854,322.931183 
	C2039.998413,322.819519 2040.000122,322.684753 2040.000000,331.379974 
	C2040.000000,332.379395 2040.000000,333.378845 2040.000000,334.378265 
	C2040.000000,343.411469 2040.000000,352.444672 2040.000000,362.348938 
	C2038.499756,360.924255 2037.805420,360.248840 2037.093994,359.592010 
	C2027.531128,350.761292 2010.516357,351.555115 2001.981689,360.410858 
	C1989.875366,372.972565 1991.247070,388.098633 1993.005859,404.290802 
M1628.422241,334.946716 
	C1622.890991,331.446564 1616.864136,329.871765 1610.311035,329.972473 
	C1602.653198,330.090179 1594.986450,330.183868 1587.335083,329.932526 
	C1582.586304,329.776550 1580.906006,331.581146 1580.929932,336.326935 
	C1581.072021,364.466492 1581.117310,392.608093 1580.897461,420.746674 
	C1580.855347,426.146271 1583.872070,426.003845 1587.526733,426.023407 
	C1591.238159,426.043274 1594.282349,426.043182 1594.102539,420.690399 
	C1593.752563,410.266541 1594.000000,399.822662 1594.000000,389.528320 
	C1602.079590,388.994415 1609.773682,389.281250 1617.124023,387.828369 
	C1630.813721,385.122314 1638.048706,375.543945 1639.725220,362.215332 
	C1641.053345,351.655640 1638.174194,342.115540 1628.422241,334.946716 
M1027.234375,426.989441 
	C1028.829834,426.659912 1030.487915,426.507446 1032.010010,425.970184 
	C1038.531616,423.668213 1045.104736,421.468292 1051.463257,418.769989 
	C1053.913452,417.730255 1055.433960,409.241760 1053.612549,407.335052 
	C1050.500488,404.077362 1048.158203,407.329437 1045.514282,408.756653 
	C1038.167480,412.722137 1030.676025,415.662964 1021.880066,414.107330 
	C1011.942078,412.349731 1005.429932,407.175659 1001.863098,397.728424 
	C997.618042,386.484619 997.110474,375.082489 1000.073425,363.608185 
	C1004.410889,346.810822 1017.781799,335.193787 1037.340332,342.823029 
	C1042.248291,344.737457 1046.817993,347.519073 1051.519653,349.890320 
	C1056.513184,343.406952 1052.831543,336.715942 1047.573120,333.847076 
	C1039.281982,329.323761 1030.600952,328.474213 1021.304504,328.854462 
	C1007.035950,329.438049 994.092529,340.124969 989.006165,352.421783 
	C983.989014,364.551331 982.987549,377.026154 984.923279,389.994385 
	C988.544006,414.250549 1001.981567,426.620026 1027.234375,426.989441 
M1898.291138,415.761353 
	C1902.533813,423.448395 1909.698364,426.226990 1917.826904,426.943054 
	C1926.098022,427.671661 1933.137939,424.057526 1940.248047,418.908203 
	C1938.875488,425.346558 1942.066284,426.067017 1946.561157,426.081940 
	C1951.608521,426.098694 1952.131714,423.231049 1952.029907,419.275360 
	C1951.624756,403.524719 1951.336304,387.771088 1951.000122,372.018677 
	C1950.846191,364.805023 1947.262329,359.654419 1940.987915,356.548370 
	C1932.575806,352.384003 1923.649048,352.314484 1914.800903,354.758911 
	C1910.484741,355.951324 1906.338013,357.947906 1902.335327,360.009094 
	C1900.068237,361.176605 1898.809937,368.098450 1900.432983,369.778320 
	C1903.130615,372.570679 1905.294434,369.855469 1907.807251,368.842529 
	C1912.588013,366.915344 1917.517700,365.002136 1922.562134,364.215302 
	C1925.691528,363.727142 1929.587646,364.547760 1932.366577,366.134674 
	C1939.160889,370.014374 1939.157227,376.833313 1938.886475,383.484711 
	C1931.379272,384.011871 1924.277710,384.151062 1917.288086,385.108032 
	C1910.999756,385.968964 1905.165649,388.184418 1900.830688,393.430359 
	C1895.302490,400.120361 1896.625854,407.503693 1898.291138,415.761353 
M1452.025513,359.498627 
	C1451.037354,360.985901 1449.385864,362.404449 1449.222900,363.977203 
	C1449.001831,366.111542 1449.544312,368.574524 1450.585449,370.433960 
	C1450.887329,370.973145 1454.097656,370.160217 1455.836182,369.563446 
	C1459.962646,368.147003 1463.931152,366.242981 1468.096924,364.973602 
	C1481.560425,360.870972 1490.764038,369.810730 1487.386230,383.510101 
	C1480.256958,384.011261 1473.124023,384.033691 1466.162720,385.138245 
	C1459.346069,386.219818 1452.787109,388.583374 1448.976929,395.155975 
	C1444.331543,403.169739 1444.521240,413.356049 1450.617188,419.856598 
	C1456.710083,426.354004 1465.125977,428.440704 1473.652222,426.479126 
	C1479.393677,425.158173 1484.671265,421.820740 1489.952148,419.476074 
	C1489.933472,419.191925 1490.060303,419.704193 1489.983887,420.184021 
	C1489.248901,424.792114 1491.109619,426.156189 1495.772583,426.173492 
	C1500.613281,426.191437 1501.116089,424.077484 1501.067871,420.125580 
	C1500.895020,405.975769 1501.000122,391.822601 1500.999878,377.670685 
	C1500.999512,360.809143 1489.237183,350.346252 1472.629639,353.163055 
	C1465.836426,354.315277 1459.312012,357.052795 1452.025513,359.498627 
M1251.000000,406.499115 
	C1251.000366,411.664734 1251.115479,416.833862 1250.957886,421.994659 
	C1250.863892,425.077667 1252.137207,426.240662 1255.108521,426.021790 
	C1256.932251,425.887451 1258.979370,426.472076 1260.543701,425.818329 
	C1261.964478,425.224579 1263.856567,423.386200 1263.848511,422.107269 
	C1263.748413,406.346802 1263.357910,390.587830 1263.001587,374.829407 
	C1262.583008,356.320557 1243.330078,348.506439 1228.967896,356.075470 
	C1225.163696,358.080322 1221.781128,360.885284 1217.925293,363.513458 
	C1217.925293,360.698273 1217.925293,358.079254 1217.925293,355.432465 
	C1216.917603,355.149261 1216.148315,354.955017 1215.392822,354.717194 
	C1208.967651,352.694641 1206.001953,354.761078 1206.001099,361.282410 
	C1205.998291,381.278381 1206.106079,401.275269 1205.929199,421.269653 
	C1205.882080,426.595917 1209.314819,425.940796 1212.557739,425.985321 
	C1215.903442,426.031250 1219.200317,426.390503 1219.076904,421.153595 
	C1218.821899,410.328430 1219.590576,399.450226 1218.808594,388.675842 
	C1218.209106,380.415710 1220.576904,374.413544 1226.988647,369.341583 
	C1231.273071,365.952454 1235.655762,363.905060 1240.962646,365.551666 
	C1246.773193,367.354492 1249.657227,371.794708 1249.962036,377.725830 
	C1250.437866,386.977051 1250.666504,396.240906 1251.000000,406.499115 
M1826.453369,421.954956 
	C1828.548340,427.065155 1833.076172,425.680634 1837.043335,426.042236 
	C1841.660400,426.463074 1843.991577,424.763428 1845.566162,420.148743 
	C1850.697510,405.110016 1856.496826,390.300720 1861.829956,375.328583 
	C1864.092163,368.977417 1865.834595,362.440979 1867.787598,356.072296 
	C1858.225220,352.349091 1855.325317,353.637024 1852.436157,362.109436 
	C1848.928589,372.396057 1845.460327,382.696075 1841.946655,392.980560 
	C1840.108643,398.359985 1838.209839,403.718658 1835.933594,410.248077 
	C1829.990234,392.825745 1824.496826,376.736145 1819.014404,360.642761 
	C1817.133057,355.120361 1812.664551,352.800262 1807.025269,354.473297 
	C1806.110840,354.744659 1805.226196,355.116760 1803.717773,355.663330 
	C1804.146362,357.783447 1804.334839,360.044647 1805.064209,362.115387 
	C1812.014160,381.847137 1819.055786,401.546570 1826.453369,421.954956 
M1366.045776,366.765594 
	C1360.069092,377.352966 1360.257690,388.996338 1361.250244,400.432251 
	C1361.813843,406.927734 1364.007690,413.485016 1368.989136,418.501312 
	C1379.051392,428.633698 1395.569458,429.780151 1408.772461,421.686523 
	C1413.402466,418.848328 1414.943359,414.658325 1413.625854,410.141907 
	C1412.676392,406.887238 1411.302490,405.843323 1408.156006,408.218201 
	C1405.185669,410.459991 1401.953003,412.460297 1398.593750,414.058380 
	C1391.845703,417.268677 1382.472046,414.646606 1378.758179,408.248505 
	C1372.526611,397.513062 1372.556396,386.129486 1377.117065,374.898956 
	C1380.373413,366.880341 1386.716431,363.418823 1395.223022,365.202332 
	C1399.508911,366.100922 1403.352539,369.032928 1407.457886,370.910492 
	C1408.782104,371.516083 1410.429321,372.187286 1411.684448,371.868042 
	C1412.382812,371.690460 1412.905762,369.544739 1412.946533,368.268127 
	C1413.201538,360.293884 1411.945557,358.400940 1404.106079,355.996735 
	C1389.491577,351.514862 1376.314941,352.813263 1366.045776,366.765594 
M1104.000000,393.500000 
	C1104.000000,370.059998 1104.000000,346.620026 1104.000000,323.478058 
	C1101.810303,322.979828 1100.229370,322.579254 1098.631714,322.264587 
	C1094.486206,321.448151 1091.022583,323.616180 1091.019043,327.172028 
	C1090.987305,358.655579 1091.021240,390.139221 1090.981934,421.622742 
	C1090.974609,427.490326 1095.310059,425.663422 1098.408569,425.979980 
	C1101.675537,426.313843 1104.239136,426.115295 1104.086304,421.483063 
	C1103.789917,412.497559 1103.999878,403.495300 1104.000000,393.500000 
M1693.000000,412.482544 
	C1693.000000,403.825867 1693.456909,395.136597 1692.841675,386.523834 
	C1692.421997,380.647705 1695.045044,376.537079 1698.184204,372.322937 
	C1702.667847,366.303802 1708.317383,364.277283 1715.481812,367.170563 
	C1716.244873,367.478668 1717.454346,367.664612 1718.030151,367.275696 
	C1720.036499,365.920349 1719.374023,355.817383 1717.076294,355.157593 
	C1713.767822,354.207489 1710.177002,353.537811 1706.775146,353.766510 
	C1700.320312,354.200378 1696.153809,358.666656 1692.419800,364.069000 
	C1691.334473,353.556702 1689.375000,352.292755 1680.000000,355.699585 
	C1680.000000,377.228943 1680.149170,398.857239 1679.890259,420.480591 
	C1679.828857,425.604095 1682.336914,426.098724 1686.259521,426.040131 
	C1690.122559,425.982422 1693.767578,426.113586 1693.048218,420.458435 
	C1692.756470,418.164917 1693.000000,415.803284 1693.000000,412.482544 
M1149.000000,360.673401 
	C1149.000000,380.835938 1149.175415,401.001007 1148.883789,421.159332 
	C1148.805176,426.588928 1151.837402,426.091248 1155.271484,426.009979 
	C1158.752808,425.927612 1162.163086,426.536621 1162.095093,420.940552 
	C1161.852295,400.947601 1162.002686,380.949921 1161.998291,360.954010 
	C1161.997070,355.365479 1160.299194,353.689301 1154.611328,354.055664 
	C1152.748657,354.175659 1150.926514,354.924835 1149.000000,355.407776 
	C1149.000000,357.073822 1149.000000,358.398071 1149.000000,360.673401 
M1321.000000,369.513000 
	C1321.000000,366.518097 1321.008423,363.523163 1320.998169,360.528290 
	C1320.981812,355.803619 1317.926514,353.219727 1313.208862,354.074524 
	C1311.501587,354.383850 1309.855835,355.032959 1308.000000,355.580780 
	C1308.000000,377.470276 1308.123657,399.253418 1307.909302,421.033203 
	C1307.858398,426.204987 1310.892700,426.019867 1314.306274,425.997345 
	C1317.795044,425.974335 1321.188110,426.501831 1321.097900,420.920807 
	C1320.826294,404.120453 1321.000000,387.312927 1321.000000,369.513000 
M1768.000000,366.522400 
	C1768.000000,362.879974 1768.000000,359.237518 1768.000000,355.654236 
	C1766.212891,355.068573 1764.729980,354.443024 1763.184326,354.102173 
	C1758.424805,353.052551 1755.004150,355.812897 1755.002563,360.633148 
	C1754.996216,380.765961 1755.132324,400.900269 1754.908936,421.030609 
	C1754.851685,426.201538 1757.888550,426.020660 1761.304077,425.997437 
	C1764.791870,425.973724 1768.180298,426.504608 1768.097534,420.923004 
	C1767.833984,403.123505 1768.000000,385.317627 1768.000000,366.522400 
M1156.494019,329.027008 
	C1153.497192,333.982880 1150.500366,338.938751 1147.415771,344.039703 
	C1152.239746,346.959686 1156.177002,346.801514 1159.431152,342.988007 
	C1163.998535,337.635651 1168.474243,332.190521 1172.701538,326.568909 
	C1174.708618,323.899902 1172.862915,322.402557 1170.173340,322.035583 
	C1164.388550,321.246368 1159.394165,322.249390 1156.494019,329.027008 
M1307.468262,330.034637 
	C1304.583618,339.644958 1307.540649,344.160950 1316.096924,342.938110 
	C1319.055176,342.515320 1321.930054,341.404510 1321.982544,337.592560 
	C1322.040161,333.413086 1323.103882,328.268616 1317.272217,327.360260 
	C1314.334595,326.902679 1311.058472,328.618622 1307.468262,330.034637 
M1769.066040,333.193542 
	C1768.365356,331.483246 1768.138306,329.145691 1766.869629,328.187653 
	C1763.827148,325.890289 1756.427124,326.558563 1755.311401,329.562286 
	C1754.118164,332.774841 1753.762817,337.184875 1755.055542,340.212219 
	C1756.710693,344.088104 1761.254883,343.364868 1764.921753,342.545685 
	C1769.710693,341.475861 1769.282104,337.514984 1769.066040,333.193542 
z"/>
<path fill="#A9ABAE" opacity="1.000000" stroke="none" 
	d="
M193.987717,369.178528 
	C218.480637,369.132446 242.977676,368.811401 267.464447,369.177429 
	C277.087158,369.321289 282.981659,363.761139 282.900574,353.492493 
	C282.829590,344.494995 282.875519,335.496429 282.896240,326.498413 
	C282.899994,324.869476 283.031586,323.240814 283.117249,321.318787 
	C516.980591,321.318787 750.534363,321.318787 985.253235,321.318787 
	C966.353088,333.636444 958.042175,350.608398 957.827454,372.393188 
	C957.618835,393.562714 963.541992,411.732513 980.347839,426.753693 
	C736.169861,426.753693 493.033386,426.753693 249.000000,426.753693 
	C249.000000,429.139557 249.000000,431.044830 249.000000,432.950104 
	C249.000000,473.608093 248.993881,514.266113 249.008194,554.924072 
	C249.009872,559.694275 248.302521,564.150818 244.127502,567.676025 
	C211.979111,568.000000 179.958206,568.000000 147.468658,568.000000 
	C145.333511,564.795410 142.255447,561.606689 142.219070,558.383728 
	C141.858643,526.451538 141.999466,494.513794 142.012909,462.577606 
	C142.013306,461.611908 142.170944,460.646271 142.313522,459.013489 
	C149.233307,459.013489 155.992111,459.013580 162.750931,459.013428 
	C167.740967,459.013306 172.731003,459.020508 177.721024,459.010956 
	C188.039581,458.991180 192.858643,454.249115 192.888855,443.785919 
	C192.958984,419.501404 192.930374,395.216583 193.186920,370.377686 
	C193.682129,369.664398 193.867355,369.449402 193.987717,369.178528 
z"/>
<path fill="#20BDB3" opacity="1.000000" stroke="none" 
	d="
M1226.531372,1.000000 
	C1227.000000,98.133583 1227.000000,195.267166 1227.000000,292.700134 
	C1211.915649,292.700134 1197.196533,292.700134 1182.150635,292.700134 
	C1182.150635,211.908798 1182.150635,131.306381 1182.150635,50.703949 
	C1181.916748,50.663685 1181.682739,50.623425 1181.448853,50.583160 
	C1178.657959,59.679729 1175.754639,68.743622 1173.100952,77.880020 
	C1168.333252,94.293755 1163.756592,110.762917 1159.024780,127.187164 
	C1152.399658,150.183228 1145.671875,173.149734 1139.048462,196.146286 
	C1130.306641,226.497513 1121.602783,256.859711 1112.940186,287.233582 
	C1111.793213,291.255066 1110.201538,293.349945 1105.190552,293.176788 
	C1090.718628,292.676666 1076.218140,293.000000 1061.461060,293.000000 
	C1037.141602,211.852737 1012.859680,130.831024 988.184937,48.498333 
	C988.184937,130.614151 988.184937,211.408997 988.184937,292.601685 
	C972.784912,292.601685 957.730652,292.601685 942.000000,292.601685 
	C942.000000,195.784729 942.000000,98.861023 942.000000,1.468657 
	C968.020874,1.000000 994.041809,1.000000 1020.532715,1.400381 
	C1042.190430,74.206474 1063.378052,146.612183 1084.565674,219.017899 
	C1084.917114,218.966187 1085.268555,218.914490 1085.619995,218.862778 
	C1105.413330,146.241852 1125.206665,73.620934 1145.000000,1.000005 
	C1172.020874,1.000000 1199.041870,1.000000 1226.531372,1.000000 
z"/>
<path fill="#20BDB3" opacity="1.000000" stroke="none" 
	d="
M405.531342,1.000001 
	C413.471893,2.920543 421.329254,3.954293 428.315765,6.991428 
	C436.605164,10.594954 444.653259,15.242820 451.896027,20.655661 
	C464.234009,29.876390 472.801392,42.350235 477.819733,56.886856 
	C480.026978,63.280643 481.437042,70.174484 481.826477,76.921089 
	C482.500092,88.590950 482.306152,100.302284 479.028198,111.769478 
	C475.913361,122.666084 469.499390,131.402222 461.963806,139.489136 
	C459.703583,141.914688 457.180634,144.095428 454.946167,146.227890 
	C460.411621,153.148605 465.832336,159.504364 470.675903,166.273117 
	C476.897186,174.967194 479.507324,185.161179 480.887909,195.554993 
	C481.798309,202.409042 481.647339,209.402588 482.003845,216.332001 
	C482.740204,230.645187 477.121277,242.904190 469.191254,254.182648 
	C458.987457,268.694946 445.715179,279.656281 429.551178,287.206238 
	C421.669281,290.887787 413.435699,292.872681 404.923065,292.911926 
	C362.938141,293.105499 320.951447,292.915680 278.966553,293.111603 
	C273.983124,293.134827 272.902283,291.514160 272.908264,286.841492 
	C273.029907,191.873566 272.999786,96.905411 273.000000,1.468657 
	C317.020905,1.000000 361.041779,1.000000 405.531342,1.000001 
M320.000000,182.518753 
	C320.000000,203.919693 320.000000,225.320633 320.000000,246.996597 
	C348.292603,246.996597 375.909088,247.235504 403.515503,246.814224 
	C409.749481,246.719101 415.175964,243.174774 419.082764,237.780762 
	C429.261932,223.726624 430.001740,208.485992 424.978180,192.529526 
	C420.413788,178.031433 413.664581,170.557114 395.545532,170.894470 
	C372.247986,171.328262 348.936249,171.000000 325.630646,171.000000 
	C323.864532,171.000000 322.098389,171.000000 320.000000,171.000000 
	C320.000000,174.922531 320.000000,178.224167 320.000000,182.518753 
M401.289001,46.000652 
	C395.200287,45.667103 389.113190,45.085678 383.022552,45.045956 
	C363.883087,44.921120 344.742249,45.000000 325.601959,45.000000 
	C323.838867,45.000000 322.075745,45.000000 320.347717,45.000000 
	C320.347717,70.341476 320.347717,95.037079 320.347717,119.995941 
	C347.305573,119.995941 373.920837,120.268066 400.525299,119.849785 
	C409.959991,119.701462 417.099213,114.367226 421.511932,105.944801 
	C426.781952,95.886086 428.425842,85.273621 426.038239,74.048874 
	C423.122711,60.342186 416.676147,49.765759 401.289001,46.000652 
z"/>
<path fill="#20BDB3" opacity="1.000000" stroke="none" 
	d="
M857.531372,1.000000 
	C860.115601,1.572091 862.221558,2.182863 864.348267,2.710109 
	C880.437805,6.698889 891.529968,17.461445 900.621704,30.396975 
	C910.626892,44.632236 916.888184,60.688961 918.823364,77.941925 
	C920.781372,95.399040 916.774841,111.780540 907.115417,126.787331 
	C894.776306,145.957336 878.391724,159.936844 856.622925,166.982803 
	C849.259094,169.366318 841.449951,170.374146 833.685608,172.044815 
	C862.195801,211.708252 891.055542,251.857880 920.223450,292.436249 
	C918.906921,292.656372 917.881165,292.975220 916.854675,292.977356 
	C901.524231,293.009491 886.192566,292.902100 870.864014,293.077057 
	C867.538208,293.114990 865.703369,291.596283 864.026123,289.153931 
	C844.612915,260.885284 825.192810,232.621353 805.734558,204.383682 
	C793.779480,187.034500 781.752380,169.734924 769.772644,152.402710 
	C769.218628,151.601089 768.811768,150.697800 768.336304,149.841873 
	C767.948608,150.102692 767.560852,150.363510 767.173157,150.624329 
	C767.173157,197.830902 767.173157,245.037491 767.173157,292.621490 
	C751.412659,292.621490 736.027527,292.621490 720.000000,292.621490 
	C720.000000,195.762070 720.000000,98.849693 720.000000,1.468657 
	C765.687561,1.000000 811.375122,1.000000 857.531372,1.000000 
M867.061768,85.007156 
	C867.539978,77.177605 865.086548,70.110336 861.041260,63.614273 
	C852.396240,49.731895 838.754028,45.389263 823.498230,45.080914 
	C806.175476,44.730782 788.840149,44.993332 771.510315,45.012527 
	C770.079346,45.014111 768.648499,45.191456 767.843140,45.245308 
	C767.843140,75.388863 767.843140,105.058517 767.843140,134.995193 
	C789.327515,134.995193 809.981201,135.395584 830.606995,134.810028 
	C839.619507,134.554169 847.854248,130.309174 853.838989,123.463181 
	C863.151978,112.810020 867.866211,100.181183 867.061768,85.007156 
z"/>
<path fill="#20BDB3" opacity="1.000000" stroke="none" 
	d="
M1622.531372,1.000004 
	C1628.280273,2.307305 1633.739746,3.129815 1638.811035,5.002719 
	C1666.103638,15.082211 1682.214600,34.831123 1687.915039,63.157326 
	C1688.816895,67.638855 1688.949219,72.332054 1688.956177,76.928123 
	C1689.027710,124.083427 1688.890259,171.239288 1689.060181,218.394104 
	C1689.118652,234.649033 1683.003174,248.249222 1672.982056,260.571564 
	C1661.389648,274.826141 1647.039429,284.993134 1629.377686,290.158752 
	C1624.404053,291.613434 1619.145264,292.852905 1614.010742,292.878265 
	C1570.855469,293.091583 1527.698608,293.000244 1484.542236,292.993622 
	C1483.567627,292.993469 1482.593018,292.911377 1481.000000,292.839661 
	C1481.000000,195.754745 1481.000000,98.846031 1481.000000,1.468657 
	C1528.020874,1.000000 1575.041870,1.000000 1622.531372,1.000004 
M1644.000000,109.500000 
	C1644.000000,100.001404 1644.533325,90.465187 1643.866577,81.013618 
	C1643.009888,68.866753 1638.124023,58.622555 1627.165405,52.000858 
	C1618.609863,46.831234 1609.043335,45.306995 1599.463013,45.138947 
	C1575.473755,44.718155 1551.472046,44.995110 1527.475342,45.012558 
	C1526.047974,45.013596 1524.620605,45.194233 1523.244629,45.287811 
	C1523.244629,112.667290 1523.244629,179.595551 1523.244629,247.000000 
	C1525.269897,247.000000 1527.057739,247.000000 1528.845581,247.000000 
	C1553.342285,247.000000 1577.841553,247.195755 1602.333740,246.862213 
	C1608.447876,246.778946 1614.714111,245.588348 1620.604980,243.863190 
	C1633.997314,239.941208 1644.348877,224.599655 1644.161011,211.483856 
	C1643.678955,177.828705 1644.000000,144.162048 1644.000000,109.500000 
z"/>
<path fill="#20BDB3" opacity="1.000000" stroke="none" 
	d="
M1922.531372,1.000000 
	C1923.000000,15.467900 1923.000000,29.935801 1923.000000,44.999977 
	C1920.870361,44.999977 1919.098633,44.999977 1917.326904,44.999977 
	C1880.828369,44.999981 1844.327515,44.766460 1807.832520,45.123978 
	C1794.685181,45.252773 1782.212280,48.267689 1772.708496,58.721817 
	C1762.442139,70.014938 1760.299194,87.383820 1768.306519,100.904762 
	C1776.241821,114.304245 1788.627075,119.649734 1803.284180,119.882225 
	C1829.598877,120.299614 1855.925049,120.000000 1882.622925,120.000000 
	C1882.622925,136.926132 1882.622925,153.645767 1882.622925,171.000000 
	C1880.907471,171.000000 1879.140259,171.000000 1877.372925,171.000000 
	C1853.373901,171.000000 1829.371948,170.781982 1805.376953,171.094223 
	C1793.801880,171.244843 1783.332886,174.372345 1774.854858,183.417740 
	C1765.092896,193.833191 1762.160522,211.170578 1768.015259,224.192108 
	C1775.087280,239.921326 1787.706055,246.876389 1804.356079,246.948822 
	C1841.853882,247.111954 1879.352905,247.000000 1916.851440,247.000000 
	C1918.666992,247.000000 1920.482544,247.000000 1922.648438,247.000000 
	C1922.648438,262.310883 1922.648438,277.363678 1922.648438,293.382843 
	C1914.054932,292.945129 1905.524658,292.503326 1896.993164,292.082916 
	C1895.496582,292.009186 1893.995361,292.003479 1892.496338,292.003235 
	C1864.830688,291.998810 1837.164307,292.133728 1809.499756,291.958160 
	C1786.902222,291.814758 1765.692139,286.558167 1747.191162,272.995209 
	C1730.130249,260.487915 1720.268921,243.486877 1716.997070,222.622070 
	C1714.661499,207.727768 1715.630371,193.108368 1720.979980,178.945999 
	C1725.380005,167.297836 1731.480591,156.684387 1741.195312,148.434296 
	C1726.972534,135.807022 1720.023560,119.673859 1717.102783,101.758354 
	C1714.024170,82.873711 1715.151001,64.165138 1723.294312,46.528679 
	C1729.260498,33.607773 1738.379883,23.243334 1750.644775,15.711962 
	C1765.380859,6.662972 1781.490479,2.549623 1798.798096,1.374705 
	C1840.020874,1.000000 1881.041870,1.000000 1922.531372,1.000000 
z"/>
<path fill="#20BDB3" opacity="1.000000" stroke="none" 
	d="
M699.531372,1.000000 
	C700.000000,15.467548 700.000000,29.935097 700.000000,44.999977 
	C697.871582,44.999977 696.100098,44.999977 694.328552,44.999977 
	C657.831177,44.999981 621.333130,44.882942 584.836731,45.072182 
	C574.060364,45.128059 563.571167,47.361446 554.817749,54.118755 
	C546.414429,60.605804 541.820557,69.243782 540.904419,80.110466 
	C539.209778,100.210922 554.331848,117.325188 573.671265,119.049698 
	C576.606201,119.311401 579.530579,119.948441 582.461304,119.957687 
	C606.292725,120.032936 630.124451,120.000015 653.956116,120.000015 
	C655.761902,120.000015 657.567688,120.000008 659.685303,120.000008 
	C659.685303,137.053314 659.685303,153.771774 659.685303,171.000000 
	C657.766479,171.000000 655.982422,171.000000 654.198425,171.000000 
	C629.700134,171.000000 605.200562,170.846466 580.704102,171.059189 
	C566.632629,171.181381 554.940186,176.861481 547.629211,189.055420 
	C533.177185,213.159790 547.935791,242.178146 573.127747,245.980713 
	C576.854370,246.543213 580.645996,246.949417 584.408447,246.956833 
	C620.905762,247.028702 657.403198,247.000000 693.900635,247.000000 
	C695.711548,247.000000 697.522461,247.000000 699.665649,247.000000 
	C699.665649,262.346313 699.665649,277.398376 699.665649,292.072418 
	C689.364502,292.072418 679.155945,292.075378 668.947388,292.069214 
	C667.448303,292.068298 665.949158,292.003357 664.450073,292.003113 
	C638.451904,291.998810 612.452637,292.151611 586.455994,291.954895 
	C563.162903,291.778625 541.243774,286.223480 522.669373,271.720184 
	C508.038757,260.296356 498.586639,245.236221 494.870605,226.585037 
	C490.691925,205.611816 493.183716,185.716049 503.160187,166.975708 
	C506.897919,159.954559 512.226440,153.780273 516.359863,147.889481 
	C511.346222,140.010834 505.434875,131.996384 500.903320,123.265747 
	C495.674103,113.190994 493.238007,102.120277 492.988068,90.660141 
	C492.739380,79.256920 492.962891,67.940369 496.515198,56.912689 
	C504.404785,32.420361 520.459595,16.062784 544.925049,8.083750 
	C557.794434,3.886594 571.057739,1.937629 584.792786,1.377913 
	C623.020874,1.000000 661.041809,1.000000 699.531372,1.000000 
z"/>
<path fill="#20BDB3" opacity="1.000000" stroke="none" 
	d="
M1461.531372,1.000000 
	C1462.000000,66.471458 1462.339722,131.945648 1461.813477,197.412872 
	C1461.632446,219.940659 1455.115845,240.828186 1440.070068,258.570618 
	C1425.420166,275.846069 1406.638184,285.645752 1384.889160,289.835968 
	C1374.461670,291.844971 1363.642334,293.117645 1353.061768,292.783997 
	C1325.133301,291.903290 1299.462646,284.074249 1277.325195,266.000092 
	C1262.463013,253.865875 1253.305054,238.583511 1249.166992,220.117096 
	C1248.275757,216.139801 1248.050415,211.943481 1248.046509,207.847549 
	C1247.981323,139.210846 1248.000000,70.574074 1248.000000,1.468657 
	C1263.687622,1.000000 1279.375122,1.000000 1295.531372,1.468657 
	C1296.000000,69.220261 1296.058350,136.503342 1295.917358,203.785995 
	C1295.901855,211.204620 1298.066040,217.653702 1302.116821,223.568146 
	C1312.601440,238.876526 1328.469360,244.871124 1345.791016,246.788071 
	C1361.643921,248.542480 1377.292480,246.472900 1391.378784,237.891800 
	C1405.827393,229.090042 1414.757324,216.364548 1414.851318,199.350601 
	C1415.216309,133.235474 1415.000000,67.117142 1415.000000,1.000000 
	C1430.354248,1.000000 1445.708496,1.000000 1461.531372,1.000000 
z"/>
<path fill="#20BDB3" opacity="1.000000" stroke="none" 
	d="
M2148.000000,291.531342 
	C2079.917969,292.000000 2011.835938,292.000000 1943.236328,292.000000 
	C1943.194946,291.394226 1943.016357,289.968536 1943.012939,288.542419 
	C1942.988525,278.376923 1943.500000,268.178864 1942.841919,258.056091 
	C1942.314453,249.939560 1944.908691,243.769547 1949.832764,237.446671 
	C1967.623779,214.602341 1984.833496,191.306244 2002.359863,168.254578 
	C2020.787231,144.018021 2039.359741,119.891869 2057.804932,95.668747 
	C2070.295410,79.265434 2082.676270,62.778778 2095.093262,46.319641 
	C2095.259521,46.099373 2095.255859,45.751053 2095.430176,45.084900 
	C2044.778320,45.084900 1994.225586,45.084900 1943.000000,45.084900 
	C1943.000000,30.458073 1943.000000,16.197695 1943.000000,1.468657 
	C2011.217773,1.000000 2079.435547,1.000000 2148.000000,1.000000 
	C2148.000000,18.686050 2148.000000,36.374367 2147.670898,54.630699 
	C2137.238525,68.083366 2127.090576,80.933533 2117.043701,93.862106 
	C2106.199219,107.816872 2095.469971,121.861298 2084.651367,135.836243 
	C2074.432617,149.036621 2064.165283,162.199799 2053.914551,175.375336 
	C2045.465820,186.234619 2037.021240,197.097107 2028.554199,207.942108 
	C2018.523560,220.789856 2008.470459,233.620224 1998.003174,247.000000 
	C2048.476074,247.000000 2098.238037,247.000000 2148.000000,247.000000 
	C2148.000000,261.687561 2148.000000,276.375122 2148.000000,291.531342 
z"/>
<path fill="#FFFFFF" opacity="1.000000" stroke="none" 
	d="
M1414.531372,1.000000 
	C1415.000000,67.117142 1415.216309,133.235474 1414.851318,199.350601 
	C1414.757324,216.364548 1405.827393,229.090042 1391.378784,237.891800 
	C1377.292480,246.472900 1361.643921,248.542480 1345.791016,246.788071 
	C1328.469360,244.871124 1312.601440,238.876526 1302.116821,223.568146 
	C1298.066040,217.653702 1295.901855,211.204620 1295.917358,203.785995 
	C1296.058350,136.503342 1296.000000,69.220261 1296.000000,1.468657 
	C1335.354248,1.000000 1374.708496,1.000000 1414.531372,1.000000 
z"/>
<path fill="#FFFFFF" opacity="1.000000" stroke="none" 
	d="
M2148.000000,246.531342 
	C2098.238037,247.000000 2048.476074,247.000000 1998.003174,247.000000 
	C2008.470459,233.620224 2018.523560,220.789856 2028.554199,207.942108 
	C2037.021240,197.097107 2045.465820,186.234619 2053.914551,175.375336 
	C2064.165283,162.199799 2074.432617,149.036621 2084.651367,135.836243 
	C2095.469971,121.861298 2106.199219,107.816872 2117.043701,93.862106 
	C2127.090576,80.933533 2137.238525,68.083366 2147.670898,55.099358 
	C2148.000000,118.687561 2148.000000,182.375122 2148.000000,246.531342 
z"/>
<path fill="#FFFFFF" opacity="1.000000" stroke="none" 
	d="
M1144.531372,1.000005 
	C1125.206665,73.620934 1105.413330,146.241852 1085.619995,218.862778 
	C1085.268555,218.914490 1084.917114,218.966187 1084.565674,219.017899 
	C1063.378052,146.612183 1042.190430,74.206474 1021.001404,1.400381 
	C1062.020874,1.000000 1103.041870,1.000000 1144.531372,1.000005 
z"/>
<path fill="#A9ABAE" opacity="1.000000" stroke="none" 
	d="
M1.000000,326.468658 
	C3.552219,321.917297 7.236736,320.502289 11.967638,320.945374 
	C15.059827,321.234955 18.201143,321.000000 21.931192,321.000000 
	C21.931192,333.166656 21.885847,344.780426 21.949230,356.393585 
	C21.983892,362.744476 24.304787,366.330200 29.821701,368.300476 
	C31.630465,368.946442 33.716640,369.005493 35.676594,369.009338 
	C59.006775,369.055267 82.337074,369.040009 105.667343,369.040802 
	C107.477882,369.040863 109.288422,369.040802 111.499657,369.040802 
	C111.499657,388.314423 111.499657,407.211823 111.499657,426.721252 
	C109.823479,426.811523 108.073311,426.987000 106.323044,426.987915 
	C74.827187,427.004486 43.331310,426.987793 11.835472,427.014648 
	C7.667761,427.018188 3.926950,426.286652 1.308667,422.165405 
	C1.000000,390.312439 1.000000,358.624878 1.000000,326.468658 
z"/>
<path fill="#AC0DA5" opacity="1.000000" stroke="none" 
	d="
M2148.000000,424.531342 
	C2145.094238,425.318848 2141.934082,426.455292 2139.375244,425.659210 
	C2137.763184,425.157623 2137.051025,421.763245 2136.173340,420.113586 
	C2131.415771,422.134979 2126.201904,425.624268 2120.584229,426.488831 
	C2105.979736,428.736542 2092.773926,422.289612 2093.168457,405.111908 
	C2093.432129,393.621887 2099.791504,387.665192 2113.409912,385.138153 
	C2120.303223,383.859039 2127.462158,384.012268 2135.790283,383.427399 
	C2134.807861,378.693726 2134.919678,373.399567 2132.624023,369.535797 
	C2129.158203,363.703003 2122.543945,362.905365 2116.336914,364.445526 
	C2111.517822,365.641235 2106.960938,367.960693 2102.359863,369.947876 
	C2098.488037,371.620026 2095.586914,369.977539 2096.235596,365.827789 
	C2096.680664,362.980194 2097.394775,360.073517 2100.886719,358.430267 
	C2111.776123,353.305969 2122.924805,351.601410 2134.509521,355.072540 
	C2141.638428,357.208679 2146.155029,362.105530 2147.650391,369.854584 
	C2148.000000,388.020905 2148.000000,406.041779 2148.000000,424.531342 
M2107.004150,402.986420 
	C2106.994385,410.844940 2109.502197,415.306030 2114.581787,415.956360 
	C2126.890869,417.532349 2139.087891,409.534943 2134.182129,394.000000 
	C2130.096680,394.000000 2125.954834,393.924805 2121.816895,394.017487 
	C2115.503418,394.158875 2109.966797,395.820068 2107.004150,402.986420 
z"/>
<path fill="#AC0DA5" opacity="1.000000" stroke="none" 
	d="
M186.072708,363.006592 
	C186.004745,389.322784 185.932419,415.638947 185.871323,441.955139 
	C185.851013,450.701355 184.534088,452.049438 175.884598,452.050659 
	C159.558670,452.052917 143.232742,452.058380 126.906815,452.047974 
	C119.278709,452.043121 118.817131,451.584412 118.812462,443.728210 
	C118.797409,418.406342 118.806557,393.084503 118.806366,367.762634 
	C118.806351,366.119293 118.806366,364.475983 118.806366,362.081573 
	C116.728371,362.081573 114.976219,362.081573 113.224068,362.081573 
	C87.569038,362.081329 61.913994,362.094971 36.258980,362.071503 
	C29.481548,362.065277 28.876337,361.451447 28.863865,354.552582 
	C28.832544,337.227173 28.835737,319.901642 28.863132,302.576202 
	C28.874119,295.629059 29.504412,295.046417 36.734116,295.043304 
	C62.055962,295.032440 87.377815,295.039032 112.699669,295.039001 
	C114.513878,295.039001 116.328087,295.038971 118.806366,295.038971 
	C118.806366,292.948914 118.806358,291.180511 118.806374,289.412079 
	C118.806557,264.256836 118.800629,239.101578 118.810326,213.946320 
	C118.813599,205.448471 119.216652,205.069046 127.930161,205.067276 
	C144.422684,205.063904 160.915222,205.054108 177.407730,205.073196 
	C183.401016,205.080124 185.855896,207.504318 185.860291,213.455643 
	C185.878876,238.610886 185.868622,263.766144 185.868896,288.921417 
	C185.868912,290.734741 185.868896,292.548096 185.868896,295.038971 
	C187.905365,295.038971 189.668121,295.038971 191.430893,295.039001 
	C216.586151,295.039062 241.741409,295.034637 266.896667,295.042236 
	C273.615021,295.044281 275.812286,297.232971 275.817657,303.946960 
	C275.830719,320.272888 275.829437,336.598846 275.819092,352.924774 
	C275.814240,360.544067 274.228851,362.076813 266.401337,362.080231 
	C240.246933,362.091736 214.092514,362.097687 187.209137,362.121765 
	C186.344345,362.427338 186.208527,362.716949 186.072708,363.006592 
z"/>
<path fill="#A9ABAE" opacity="1.000000" stroke="none" 
	d="
M192.908173,259.000000 
	C192.908112,243.843582 192.916321,229.187149 192.905579,214.530731 
	C192.897049,202.896225 188.005997,198.078018 176.234848,198.057404 
	C165.410065,198.038467 154.585266,198.012848 143.760544,197.974808 
	C143.445679,197.973694 143.131439,197.799316 142.129089,197.501038 
	C142.129089,193.804138 141.528793,189.771103 142.279663,186.007645 
	C143.237808,181.205261 147.165451,179.047012 151.904465,179.035934 
	C180.884048,178.968155 209.864059,178.945801 238.843475,179.042236 
	C245.697571,179.065048 248.963455,183.385452 248.982132,192.068817 
	C249.033340,215.885406 248.999939,239.702164 249.000015,263.518860 
	C249.000031,271.473785 249.000000,279.428741 249.000000,287.704224 
	C230.260742,287.704224 212.020294,287.704224 192.908249,287.704224 
	C192.908249,278.318298 192.908249,268.909149 192.908173,259.000000 
z"/>
<path fill="#AC0DA5" opacity="1.000000" stroke="none" 
	d="
M1992.993896,403.855011 
	C1991.247070,388.098633 1989.875366,372.972565 2001.981689,360.410858 
	C2010.516357,351.555115 2027.531128,350.761292 2037.093994,359.592010 
	C2037.805420,360.248840 2038.499756,360.924255 2040.000000,362.348938 
	C2040.000000,352.444672 2040.000000,343.411469 2040.000000,334.378265 
	C2040.000000,333.378845 2040.000000,332.379395 2040.000000,331.379974 
	C2040.000122,322.684753 2039.998413,322.819519 2048.724854,322.931183 
	C2051.999023,322.973114 2053.124512,324.106018 2053.050781,327.333527 
	C2052.887207,334.492401 2053.000000,341.657562 2053.000000,348.820160 
	C2053.000000,372.639923 2052.915283,396.460297 2053.080078,420.278931 
	C2053.108643,424.437988 2052.256836,426.233429 2047.612671,426.155396 
	C2043.324585,426.083313 2041.318237,425.008606 2041.971924,420.511200 
	C2042.155273,419.249664 2042.000000,417.938843 2042.000000,416.246124 
	C2038.376221,418.879669 2035.333740,421.614685 2031.843384,423.535797 
	C2017.570923,431.391388 1997.446411,425.860870 1993.851929,406.572327 
	C1993.705444,405.786530 1993.293945,405.050171 1992.993896,403.855011 
M2009.971436,371.540009 
	C2003.305664,382.440430 2003.644775,394.014496 2008.102295,405.263702 
	C2009.642212,409.149963 2013.880371,413.672394 2017.703613,414.625885 
	C2028.769897,417.385742 2039.999878,407.371613 2040.000000,396.050232 
	C2040.000000,392.395264 2039.438965,388.632416 2040.116577,385.107758 
	C2041.532104,377.746460 2037.737427,373.108917 2032.591187,369.174774 
	C2024.993896,363.366760 2016.073120,362.709717 2009.971436,371.540009 
z"/>
<path fill="#AC0DA5" opacity="1.000000" stroke="none" 
	d="
M1628.695679,335.202911 
	C1638.174194,342.115540 1641.053345,351.655640 1639.725220,362.215332 
	C1638.048706,375.543945 1630.813721,385.122314 1617.124023,387.828369 
	C1609.773682,389.281250 1602.079590,388.994415 1594.000000,389.528320 
	C1594.000000,399.822662 1593.752563,410.266541 1594.102539,420.690399 
	C1594.282349,426.043182 1591.238159,426.043274 1587.526733,426.023407 
	C1583.872070,426.003845 1580.855347,426.146271 1580.897461,420.746674 
	C1581.117310,392.608093 1581.072021,364.466492 1580.929932,336.326935 
	C1580.906006,331.581146 1582.586304,329.776550 1587.335083,329.932526 
	C1594.986450,330.183868 1602.653198,330.090179 1610.311035,329.972473 
	C1616.864136,329.871765 1622.890991,331.446564 1628.695679,335.202911 
M1594.000000,344.681519 
	C1594.000000,355.732483 1594.000000,366.783447 1594.000000,378.829803 
	C1601.308472,377.925140 1607.910278,377.701385 1614.193970,376.171234 
	C1621.140869,374.479584 1626.566040,365.529114 1625.979248,358.490021 
	C1625.236450,349.583038 1620.609375,343.487061 1612.590332,342.098663 
	C1607.291382,341.181213 1601.809204,341.218781 1596.404175,341.134338 
	C1595.617188,341.122040 1594.803467,342.815582 1594.000000,344.681519 
z"/>
<path fill="#AC0DA5" opacity="1.000000" stroke="none" 
	d="
M1026.778809,426.994019 
	C1001.981567,426.620026 988.544006,414.250549 984.923279,389.994385 
	C982.987549,377.026154 983.989014,364.551331 989.006165,352.421783 
	C994.092529,340.124969 1007.035950,329.438049 1021.304504,328.854462 
	C1030.600952,328.474213 1039.281982,329.323761 1047.573120,333.847076 
	C1052.831543,336.715942 1056.513184,343.406952 1051.519653,349.890320 
	C1046.817993,347.519073 1042.248291,344.737457 1037.340332,342.823029 
	C1017.781799,335.193787 1004.410889,346.810822 1000.073425,363.608185 
	C997.110474,375.082489 997.618042,386.484619 1001.863098,397.728424 
	C1005.429932,407.175659 1011.942078,412.349731 1021.880066,414.107330 
	C1030.676025,415.662964 1038.167480,412.722137 1045.514282,408.756653 
	C1048.158203,407.329437 1050.500488,404.077362 1053.612549,407.335052 
	C1055.433960,409.241760 1053.913452,417.730255 1051.463257,418.769989 
	C1045.104736,421.468292 1038.531616,423.668213 1032.010010,425.970184 
	C1030.487915,426.507446 1028.829834,426.659912 1026.778809,426.994019 
z"/>
<path fill="#AC0DA5" opacity="1.000000" stroke="none" 
	d="
M1898.163330,415.375061 
	C1896.625854,407.503693 1895.302490,400.120361 1900.830688,393.430359 
	C1905.165649,388.184418 1910.999756,385.968964 1917.288086,385.108032 
	C1924.277710,384.151062 1931.379272,384.011871 1938.886475,383.484711 
	C1939.157227,376.833313 1939.160889,370.014374 1932.366577,366.134674 
	C1929.587646,364.547760 1925.691528,363.727142 1922.562134,364.215302 
	C1917.517700,365.002136 1912.588013,366.915344 1907.807251,368.842529 
	C1905.294434,369.855469 1903.130615,372.570679 1900.432983,369.778320 
	C1898.809937,368.098450 1900.068237,361.176605 1902.335327,360.009094 
	C1906.338013,357.947906 1910.484741,355.951324 1914.800903,354.758911 
	C1923.649048,352.314484 1932.575806,352.384003 1940.987915,356.548370 
	C1947.262329,359.654419 1950.846191,364.805023 1951.000122,372.018677 
	C1951.336304,387.771088 1951.624756,403.524719 1952.029907,419.275360 
	C1952.131714,423.231049 1951.608521,426.098694 1946.561157,426.081940 
	C1942.066284,426.067017 1938.875488,425.346558 1940.248047,418.908203 
	C1933.137939,424.057526 1926.098022,427.671661 1917.826904,426.943054 
	C1909.698364,426.226990 1902.533813,423.448395 1898.163330,415.375061 
M1923.299194,416.000000 
	C1935.971558,412.635681 1941.500610,407.974457 1938.307739,394.000183 
	C1937.239990,394.000183 1936.100342,394.000000 1934.960571,394.000214 
	C1930.797729,394.000916 1926.625000,393.820007 1922.474121,394.042908 
	C1915.303467,394.428009 1909.815552,399.833496 1909.996460,406.006226 
	C1910.151367,411.290192 1914.164673,416.839905 1923.299194,416.000000 
z"/>
<path fill="#AC0DA5" opacity="1.000000" stroke="none" 
	d="
M1452.345459,359.283875 
	C1459.312012,357.052795 1465.836426,354.315277 1472.629639,353.163055 
	C1489.237183,350.346252 1500.999512,360.809143 1500.999878,377.670685 
	C1501.000122,391.822601 1500.895020,405.975769 1501.067871,420.125580 
	C1501.116089,424.077484 1500.613281,426.191437 1495.772583,426.173492 
	C1491.109619,426.156189 1489.248901,424.792114 1489.983887,420.184021 
	C1490.060303,419.704193 1489.933472,419.191925 1489.952148,419.476074 
	C1484.671265,421.820740 1479.393677,425.158173 1473.652222,426.479126 
	C1465.125977,428.440704 1456.710083,426.354004 1450.617188,419.856598 
	C1444.521240,413.356049 1444.331543,403.169739 1448.976929,395.155975 
	C1452.787109,388.583374 1459.346069,386.219818 1466.162720,385.138245 
	C1473.124023,384.033691 1480.256958,384.011261 1487.386230,383.510101 
	C1490.764038,369.810730 1481.560425,360.870972 1468.096924,364.973602 
	C1463.931152,366.242981 1459.962646,368.147003 1455.836182,369.563446 
	C1454.097656,370.160217 1450.887329,370.973145 1450.585449,370.433960 
	C1449.544312,368.574524 1449.001831,366.111542 1449.222900,363.977203 
	C1449.385864,362.404449 1451.037354,360.985901 1452.345459,359.283875 
M1459.463745,406.963776 
	C1462.062744,415.032013 1467.469971,418.592316 1475.356201,415.638397 
	C1485.772827,411.736755 1490.259644,407.580566 1487.307373,394.000000 
	C1482.911377,394.000000 1478.443115,393.966400 1473.975708,394.007202 
	C1465.446289,394.085144 1460.998291,397.767487 1459.463745,406.963776 
z"/>
<path fill="#AC0DA5" opacity="1.000000" stroke="none" 
	d="
M1251.000000,405.999268 
	C1250.666504,396.240906 1250.437866,386.977051 1249.962036,377.725830 
	C1249.657227,371.794708 1246.773193,367.354492 1240.962646,365.551666 
	C1235.655762,363.905060 1231.273071,365.952454 1226.988647,369.341583 
	C1220.576904,374.413544 1218.209106,380.415710 1218.808594,388.675842 
	C1219.590576,399.450226 1218.821899,410.328430 1219.076904,421.153595 
	C1219.200317,426.390503 1215.903442,426.031250 1212.557739,425.985321 
	C1209.314819,425.940796 1205.882080,426.595917 1205.929199,421.269653 
	C1206.106079,401.275269 1205.998291,381.278381 1206.001099,361.282410 
	C1206.001953,354.761078 1208.967651,352.694641 1215.392822,354.717194 
	C1216.148315,354.955017 1216.917603,355.149261 1217.925293,355.432465 
	C1217.925293,358.079254 1217.925293,360.698273 1217.925293,363.513458 
	C1221.781128,360.885284 1225.163696,358.080322 1228.967896,356.075470 
	C1243.330078,348.506439 1262.583008,356.320557 1263.001587,374.829407 
	C1263.357910,390.587830 1263.748413,406.346802 1263.848511,422.107269 
	C1263.856567,423.386200 1261.964478,425.224579 1260.543701,425.818329 
	C1258.979370,426.472076 1256.932251,425.887451 1255.108521,426.021790 
	C1252.137207,426.240662 1250.863892,425.077667 1250.957886,421.994659 
	C1251.115479,416.833862 1251.000366,411.664734 1251.000000,405.999268 
z"/>
<path fill="#AC0DA5" opacity="1.000000" stroke="none" 
	d="
M1826.262207,421.605133 
	C1819.055786,401.546570 1812.014160,381.847137 1805.064209,362.115387 
	C1804.334839,360.044647 1804.146362,357.783447 1803.717773,355.663330 
	C1805.226196,355.116760 1806.110840,354.744659 1807.025269,354.473297 
	C1812.664551,352.800262 1817.133057,355.120361 1819.014404,360.642761 
	C1824.496826,376.736145 1829.990234,392.825745 1835.933594,410.248077 
	C1838.209839,403.718658 1840.108643,398.359985 1841.946655,392.980560 
	C1845.460327,382.696075 1848.928589,372.396057 1852.436157,362.109436 
	C1855.325317,353.637024 1858.225220,352.349091 1867.787598,356.072296 
	C1865.834595,362.440979 1864.092163,368.977417 1861.829956,375.328583 
	C1856.496826,390.300720 1850.697510,405.110016 1845.566162,420.148743 
	C1843.991577,424.763428 1841.660400,426.463074 1837.043335,426.042236 
	C1833.076172,425.680634 1828.548340,427.065155 1826.262207,421.605133 
z"/>
<path fill="#AC0DA5" opacity="1.000000" stroke="none" 
	d="
M1366.229004,366.434448 
	C1376.314941,352.813263 1389.491577,351.514862 1404.106079,355.996735 
	C1411.945557,358.400940 1413.201538,360.293884 1412.946533,368.268127 
	C1412.905762,369.544739 1412.382812,371.690460 1411.684448,371.868042 
	C1410.429321,372.187286 1408.782104,371.516083 1407.457886,370.910492 
	C1403.352539,369.032928 1399.508911,366.100922 1395.223022,365.202332 
	C1386.716431,363.418823 1380.373413,366.880341 1377.117065,374.898956 
	C1372.556396,386.129486 1372.526611,397.513062 1378.758179,408.248505 
	C1382.472046,414.646606 1391.845703,417.268677 1398.593750,414.058380 
	C1401.953003,412.460297 1405.185669,410.459991 1408.156006,408.218201 
	C1411.302490,405.843323 1412.676392,406.887238 1413.625854,410.141907 
	C1414.943359,414.658325 1413.402466,418.848328 1408.772461,421.686523 
	C1395.569458,429.780151 1379.051392,428.633698 1368.989136,418.501312 
	C1364.007690,413.485016 1361.813843,406.927734 1361.250244,400.432251 
	C1360.257690,388.996338 1360.069092,377.352966 1366.229004,366.434448 
z"/>
<path fill="#AC0DA5" opacity="1.000000" stroke="none" 
	d="
M1104.000000,394.000000 
	C1103.999878,403.495300 1103.789917,412.497559 1104.086304,421.483063 
	C1104.239136,426.115295 1101.675537,426.313843 1098.408569,425.979980 
	C1095.310059,425.663422 1090.974609,427.490326 1090.981934,421.622742 
	C1091.021240,390.139221 1090.987305,358.655579 1091.019043,327.172028 
	C1091.022583,323.616180 1094.486206,321.448151 1098.631714,322.264587 
	C1100.229370,322.579254 1101.810303,322.979828 1104.000000,323.478058 
	C1104.000000,346.620026 1104.000000,370.059998 1104.000000,394.000000 
z"/>
<path fill="#AC0DA5" opacity="1.000000" stroke="none" 
	d="
M1693.000000,412.977600 
	C1693.000000,415.803284 1692.756470,418.164917 1693.048218,420.458435 
	C1693.767578,426.113586 1690.122559,425.982422 1686.259521,426.040131 
	C1682.336914,426.098724 1679.828857,425.604095 1679.890259,420.480591 
	C1680.149170,398.857239 1680.000000,377.228943 1680.000000,355.699585 
	C1689.375000,352.292755 1691.334473,353.556702 1692.419800,364.069000 
	C1696.153809,358.666656 1700.320312,354.200378 1706.775146,353.766510 
	C1710.177002,353.537811 1713.767822,354.207489 1717.076294,355.157593 
	C1719.374023,355.817383 1720.036499,365.920349 1718.030151,367.275696 
	C1717.454346,367.664612 1716.244873,367.478668 1715.481812,367.170563 
	C1708.317383,364.277283 1702.667847,366.303802 1698.184204,372.322937 
	C1695.045044,376.537079 1692.421997,380.647705 1692.841675,386.523834 
	C1693.456909,395.136597 1693.000000,403.825867 1693.000000,412.977600 
z"/>
<path fill="#AC0DA5" opacity="1.000000" stroke="none" 
	d="
M1149.000000,360.197876 
	C1149.000000,358.398071 1149.000000,357.073822 1149.000000,355.407776 
	C1150.926514,354.924835 1152.748657,354.175659 1154.611328,354.055664 
	C1160.299194,353.689301 1161.997070,355.365479 1161.998291,360.954010 
	C1162.002686,380.949921 1161.852295,400.947601 1162.095093,420.940552 
	C1162.163086,426.536621 1158.752808,425.927612 1155.271484,426.009979 
	C1151.837402,426.091248 1148.805176,426.588928 1148.883789,421.159332 
	C1149.175415,401.001007 1149.000000,380.835938 1149.000000,360.197876 
z"/>
<path fill="#AC0DA5" opacity="1.000000" stroke="none" 
	d="
M1321.000000,370.010590 
	C1321.000000,387.312927 1320.826294,404.120453 1321.097900,420.920807 
	C1321.188110,426.501831 1317.795044,425.974335 1314.306274,425.997345 
	C1310.892700,426.019867 1307.858398,426.204987 1307.909302,421.033203 
	C1308.123657,399.253418 1308.000000,377.470276 1308.000000,355.580780 
	C1309.855835,355.032959 1311.501587,354.383850 1313.208862,354.074524 
	C1317.926514,353.219727 1320.981812,355.803619 1320.998169,360.528290 
	C1321.008423,363.523163 1321.000000,366.518097 1321.000000,370.010590 
z"/>
<path fill="#AC0DA5" opacity="1.000000" stroke="none" 
	d="
M1768.000000,367.018311 
	C1768.000000,385.317627 1767.833984,403.123505 1768.097534,420.923004 
	C1768.180298,426.504608 1764.791870,425.973724 1761.304077,425.997437 
	C1757.888550,426.020660 1754.851685,426.201538 1754.908936,421.030609 
	C1755.132324,400.900269 1754.996216,380.765961 1755.002563,360.633148 
	C1755.004150,355.812897 1758.424805,353.052551 1763.184326,354.102173 
	C1764.729980,354.443024 1766.212891,355.068573 1768.000000,355.654236 
	C1768.000000,359.237518 1768.000000,362.879974 1768.000000,367.018311 
z"/>
<path fill="#AC0DA5" opacity="1.000000" stroke="none" 
	d="
M1156.752441,328.756165 
	C1159.394165,322.249390 1164.388550,321.246368 1170.173340,322.035583 
	C1172.862915,322.402557 1174.708618,323.899902 1172.701538,326.568909 
	C1168.474243,332.190521 1163.998535,337.635651 1159.431152,342.988007 
	C1156.177002,346.801514 1152.239746,346.959686 1147.415771,344.039703 
	C1150.500366,338.938751 1153.497192,333.982880 1156.752441,328.756165 
z"/>
<path fill="#AC0DA5" opacity="1.000000" stroke="none" 
	d="
M1307.701904,329.693176 
	C1311.058472,328.618622 1314.334595,326.902679 1317.272217,327.360260 
	C1323.103882,328.268616 1322.040161,333.413086 1321.982544,337.592560 
	C1321.930054,341.404510 1319.055176,342.515320 1316.096924,342.938110 
	C1307.540649,344.160950 1304.583618,339.644958 1307.701904,329.693176 
z"/>
<path fill="#AC0DA5" opacity="1.000000" stroke="none" 
	d="
M1769.244995,333.560425 
	C1769.282104,337.514984 1769.710693,341.475861 1764.921753,342.545685 
	C1761.254883,343.364868 1756.710693,344.088104 1755.055542,340.212219 
	C1753.762817,337.184875 1754.118164,332.774841 1755.311401,329.562286 
	C1756.427124,326.558563 1763.827148,325.890289 1766.869629,328.187653 
	C1768.138306,329.145691 1768.365356,331.483246 1769.244995,333.560425 
z"/>
<path fill="#F3DCF2" opacity="1.000000" stroke="none" 
	d="
M186.266693,362.925781 
	C186.208527,362.716949 186.344345,362.427338 186.744507,362.180359 
	C186.894302,362.490448 186.711563,362.697754 186.266693,362.925781 
z"/>
<path fill="#B4B6B8" opacity="1.000000" stroke="none" 
	d="
M193.746277,369.193878 
	C193.867355,369.449402 193.682129,369.664398 193.235031,369.910980 
	C193.015427,369.629883 193.171051,369.366821 193.746277,369.193878 
z"/>
<path fill="#FFFFFF" opacity="1.000000" stroke="none" 
	d="
M320.000000,182.022278 
	C320.000000,178.224167 320.000000,174.922531 320.000000,171.000000 
	C322.098389,171.000000 323.864532,171.000000 325.630646,171.000000 
	C348.936249,171.000000 372.247986,171.328262 395.545532,170.894470 
	C413.664581,170.557114 420.413788,178.031433 424.978180,192.529526 
	C430.001740,208.485992 429.261932,223.726624 419.082764,237.780762 
	C415.175964,243.174774 409.749481,246.719101 403.515503,246.814224 
	C375.909088,247.235504 348.292603,246.996597 320.000000,246.996597 
	C320.000000,225.320633 320.000000,203.919693 320.000000,182.022278 
z"/>
<path fill="#FFFFFF" opacity="1.000000" stroke="none" 
	d="
M401.719727,46.004532 
	C416.676147,49.765759 423.122711,60.342186 426.038239,74.048874 
	C428.425842,85.273621 426.781952,95.886086 421.511932,105.944801 
	C417.099213,114.367226 409.959991,119.701462 400.525299,119.849785 
	C373.920837,120.268066 347.305573,119.995941 320.347717,119.995941 
	C320.347717,95.037079 320.347717,70.341476 320.347717,45.000000 
	C322.075745,45.000000 323.838867,45.000000 325.601959,45.000000 
	C344.742249,45.000000 363.883087,44.921120 383.022552,45.045956 
	C389.113190,45.085678 395.200287,45.667103 401.719727,46.004532 
z"/>
<path fill="#FFFFFF" opacity="1.000000" stroke="none" 
	d="
M867.208984,85.422363 
	C867.866211,100.181183 863.151978,112.810020 853.838989,123.463181 
	C847.854248,130.309174 839.619507,134.554169 830.606995,134.810028 
	C809.981201,135.395584 789.327515,134.995193 767.843140,134.995193 
	C767.843140,105.058517 767.843140,75.388863 767.843140,45.245308 
	C768.648499,45.191456 770.079346,45.014111 771.510315,45.012527 
	C788.840149,44.993332 806.175476,44.730782 823.498230,45.080914 
	C838.754028,45.389263 852.396240,49.731895 861.041260,63.614273 
	C865.086548,70.110336 867.539978,77.177605 867.208984,85.422363 
z"/>
<path fill="#FFFFFF" opacity="1.000000" stroke="none" 
	d="
M1644.000000,110.000000 
	C1644.000000,144.162048 1643.678955,177.828705 1644.161011,211.483856 
	C1644.348877,224.599655 1633.997314,239.941208 1620.604980,243.863190 
	C1614.714111,245.588348 1608.447876,246.778946 1602.333740,246.862213 
	C1577.841553,247.195755 1553.342285,247.000000 1528.845581,247.000000 
	C1527.057739,247.000000 1525.269897,247.000000 1523.244629,247.000000 
	C1523.244629,179.595551 1523.244629,112.667290 1523.244629,45.287811 
	C1524.620605,45.194233 1526.047974,45.013596 1527.475342,45.012558 
	C1551.472046,44.995110 1575.473755,44.718155 1599.463013,45.138947 
	C1609.043335,45.306995 1618.609863,46.831234 1627.165405,52.000858 
	C1638.124023,58.622555 1643.009888,68.866753 1643.866577,81.013618 
	C1644.533325,90.465187 1644.000000,100.001404 1644.000000,110.000000 
z"/>
<path fill="#FFFFFF" opacity="1.000000" stroke="none" 
	d="
M2107.018066,402.569519 
	C2109.966797,395.820068 2115.503418,394.158875 2121.816895,394.017487 
	C2125.954834,393.924805 2130.096680,394.000000 2134.182129,394.000000 
	C2139.087891,409.534943 2126.890869,417.532349 2114.581787,415.956360 
	C2109.502197,415.306030 2106.994385,410.844940 2107.018066,402.569519 
z"/>
<path fill="#FFFFFF" opacity="1.000000" stroke="none" 
	d="
M2010.230713,371.262756 
	C2016.073120,362.709717 2024.993896,363.366760 2032.591187,369.174774 
	C2037.737427,373.108917 2041.532104,377.746460 2040.116577,385.107758 
	C2039.438965,388.632416 2040.000000,392.395264 2040.000000,396.050232 
	C2039.999878,407.371613 2028.769897,417.385742 2017.703613,414.625885 
	C2013.880371,413.672394 2009.642212,409.149963 2008.102295,405.263702 
	C2003.644775,394.014496 2003.305664,382.440430 2010.230713,371.262756 
z"/>
<path fill="#FFFFFF" opacity="1.000000" stroke="none" 
	d="
M1594.001099,344.200653 
	C1594.803467,342.815582 1595.617188,341.122040 1596.404175,341.134338 
	C1601.809204,341.218781 1607.291382,341.181213 1612.590332,342.098663 
	C1620.609375,343.487061 1625.236450,349.583038 1625.979248,358.490021 
	C1626.566040,365.529114 1621.140869,374.479584 1614.193970,376.171234 
	C1607.910278,377.701385 1601.308472,377.925140 1594.000000,378.829803 
	C1594.000000,366.783447 1594.000000,355.732483 1594.001099,344.200653 
z"/>
<path fill="#FFFFFF" opacity="1.000000" stroke="none" 
	d="
M1922.864868,416.000000 
	C1914.164673,416.839905 1910.151367,411.290192 1909.996460,406.006226 
	C1909.815552,399.833496 1915.303467,394.428009 1922.474121,394.042908 
	C1926.625000,393.820007 1930.797729,394.000916 1934.960571,394.000214 
	C1936.100342,394.000000 1937.239990,394.000183 1938.307739,394.000183 
	C1941.500610,407.974457 1935.971558,412.635681 1922.864868,416.000000 
z"/>
<path fill="#FFFFFF" opacity="1.000000" stroke="none" 
	d="
M1459.269775,406.619812 
	C1460.998291,397.767487 1465.446289,394.085144 1473.975708,394.007202 
	C1478.443115,393.966400 1482.911377,394.000000 1487.307373,394.000000 
	C1490.259644,407.580566 1485.772827,411.736755 1475.356201,415.638397 
	C1467.469971,418.592316 1462.062744,415.032013 1459.269775,406.619812 
z"/>
</svg>