<?xml version="1.0" encoding="UTF-8"?>
<svg version="1.1" viewBox="0 0 2048 1290" width="870" height="548" xmlns="http://www.w3.org/2000/svg">
<path transform="translate(0)" d="m0 0h2048v1290h-2048z" fill="#FBFBFB"/>
<path transform="translate(1328,538)" d="m0 0h23l21 3 15 5 14 7 12 9 9 9 5 7 4-2 7-7 15-10 15-8 19-7 17-4 16-2h24l21 3 18 6 11 6 9 7 10 10 8 14 5 14 2 11v254h-53l-39-1-1-81v-58l-1-66-4-15-6-11-5-6-10-6-8-3-5-1h-17l-12 3-10 6-7 8-5 11-3 14-1 46v159l-1 1h-53l-39-1-1-202-2-14-5-12-7-9-12-7-14-3h-13l-14 3-10 5-9 8-7 14-2 8-1 24-1 186h-93l-1-1v-287l19 4 16 2h28l21-3 10-3 6-4 7-7 12-9 17-9 16-5z" fill="#405262"/>
<path transform="translate(975,538)" d="m0 0h20l21 2 22 5 16 6 17 9 11 8 10 9 9 9 11 15 11 21 9 25 5 23 3 23 1 17v14l-1 1h-217l3 22 5 15 7 13 9 10 9 7 11 5 16 4h19l15-4 16-8 11-8 12-12 12-17 2-4 6 2 50 25 13 6-2 6-10 17-9 11-11 12-11 9-13 9-21 11-20 7-21 5-25 3h-15l-26-3-19-4-20-7-21-11-12-9-14-12-9-11-10-15-8-16-7-21-4-21-2-24v-13l2-27 4-24 6-21 6-15 9-17 8-11 11-12 11-10 14-9 16-8 18-6 20-4z" fill="#405262"/>
<path transform="translate(542,538)" d="m0 0h26l29 2 18 3 14 4 20 8 24 13 22 13 3 2-2 4-16 17-15 15-7 8-12 12-7-4-10-7-18-10-18-7-17-4-7-1h-24l-12 3-8 5-6 7-1 2v12l4 8 7 6 12 5 26 6 44 9 23 6 19 7 17 9 10 8 9 11 7 11 5 12 3 12 1 7v19l-4 20-6 15-7 13-8 10-11 11-15 10-17 9-17 6-19 4-22 2h-37l-27-3-19-4-18-6-19-9-19-12-19-14-16-12 6-7 10-9 16-15 24-22 4 1 15 12 16 12 16 9 16 6 20 4h24l18-4 14-7 8-9 2-6-1-10-5-7-16-8-23-6-50-10-26-7-16-6-16-8-11-8-10-9-8-12-4-11-2-11-1-22 2-17 4-15 8-16 9-12 7-8 14-11 15-9 17-7 18-5 12-2z" fill="#405262"/>
<path transform="translate(1194,254)" d="m0 0h21l18 2 13 4 3 2v71l16-8 29-15 17-9 6 1 9 9 12 18 10 19 7 21 1 8-4 4-31 16-16 9-5 1v2l6 2 22 12 23 12 4 3v10l-6 18-8 17-10 16-9 11-7 6-6-1-19-10-26-14-15-8v71l-6 4-13 3-8 1h-36l-16-3-8-3-2-2v-71l-25 13-22 12-15 8-4-1-8-7-8-10-8-13-8-15-6-17-2-9 1-7 28-15 25-13-3-3-25-13-22-12-4-4 1-10 5-16 10-20 9-14 9-11 6-5 7 1 25 13 33 18 1-70 8-5 14-3z" fill="#FE5E02"/>
<path transform="translate(743,546)" d="m0 0h71v317h-49l-43-1v-315z" fill="#405262"/>
<path transform="translate(721,440)" d="m0 0h93v71h-93z" fill="#405262"/>
<path transform="translate(975,607)" d="m0 0h19l16 4 13 7 9 8 9 14 4 13 1 11h-123l1-10 5-13 6-10 12-12 14-8z" fill="#FCFCFC"/>
<path transform="translate(1301,925)" d="m0 0h9l9 2 9 5 7 7 5 11v20l-6 12-7 7-9 4-15 2-11-2-11-6-7-8-4-10v-18l4-10 8-9 10-5z" fill="#FE4906"/>
<path transform="translate(1022,925)" d="m0 0 14 1 8 4 6 8 2 5 1 6v44h-15l-1-6-5 2-10 5-4 1h-9l-10-4-7-8-1-4v-8l3-7 7-6 11-4 20-4h3l-4-9-4-2h-11l-15 5-6-7v-4l11-5 7-2z" fill="#FE4A06"/>
<path transform="translate(1529,925)" d="m0 0h10l9 2 8 6 4 8 1 3 1 11-1 39-14-1-1-6-15 7-3 1h-10l-10-4-7-8-1-3v-10l4-7 9-6 13-4 18-3-4-8-4-3h-11l-12 4-4 1-5-7v-4l10-5 7-2z" fill="#FE4906"/>
<path transform="translate(710,925)" d="m0 0h10l10 3 6 4 6 7 3 9v16h-47l3 9 5 5 6 3h14l11-3 6 9-6 4-10 3-7 1h-8l-12-3-9-6-7-8-4-12v-12l3-10 6-9 10-7z" fill="#FE4A06"/>
<path transform="translate(522,925)" d="m0 0h10l8 3 5 4 4 8 1 7v46h-18l-1-46-3-5-3-2h-9l-8 4-3 3-1 46-1 1h-15l-2-1v-66h15l1 8 11-7z" fill="#FE4A06"/>
<path transform="translate(1424,925)" d="m0 0h8l9 2 6 5 4 8 1 8v45h-18l-1-45-3-6-3-2h-9l-8 4-3 3-1 46h-18v-66h15l1 7 16-8z" fill="#FE4906"/>
<path transform="translate(915,925)" d="m0 0h9l10 3 6 7 2 5 1 8v44l-1 1h-17l-1-46-3-5-3-2h-9l-8 4-3 3-1 46h-18v-66h15l1 7 16-8z" fill="#FE4906"/>
<path transform="translate(607,909)" d="m0 0h14l1 1v17h19v12l-1 1h-18l1 36 4 4 2 1h11l3 8v4l-10 2h-11l-8-3-6-5-4-9-1-38h-9v-13l10-1 2-16z" fill="#FE4A06"/>
<path transform="translate(1132,925)" d="m0 0h8l9 2 8 4v4l-5 7-5-1-6-2h-8l-8 4-6 9-1 4v9l4 9 6 5 6 2 10-1 7-4h2l6 8-1 4-10 5-4 1h-19l-10-4-8-6-6-10-2-8v-13l4-11 9-10 10-5z" fill="#FE4A06"/>
<path transform="translate(415,905)" d="m0 0h18v88l-3 1-15-1z" fill="#FE4906"/>
<path transform="translate(1614,905)" d="m0 0h18v88l-5 1-12-1-1-2z" fill="#FE4906"/>
<path transform="translate(825,925)" d="m0 0h12l1 5-2 9-5 1h-7l-7 4-6 7-1 42h-18v-66h15l1 8h2l8-7z" fill="#FE4A06"/>
<path transform="translate(1302,938)" d="m0 0 9 1 5 3 4 5 2 5v16l-4 8-5 4-10 2-8-3-6-8-1-3v-15l5-10 6-4z" fill="#FCFCFC"/>
<path transform="translate(1204,927)" d="m0 0h18v66h-17l-1-2z" fill="#FF4807"/>
<path transform="translate(916,1022)" d="m0 0h11l6 5 2 4v10l-3 5-5 4-9 1-6-3-4-5-1-3v-8l5-8z" fill="#343B49"/>
<path transform="translate(1493,1022)" d="m0 0h13l7 3 4 6v10l-3 5-3 3-3 1h-15z" fill="#405262"/>
<path transform="translate(962,1022)" d="m0 0h12l7 2 4 5 1 2v11l-5 6-4 2h-15z" fill="#363F4D"/>
<path transform="translate(873,1022)" d="m0 0h13l7 3 3 4 1 3v9l-4 6-5 3-14 1-1-1z" fill="#343D4A"/>
<path transform="translate(1149,1022)" d="m0 0h16l5 3 2 3-1 7-4 3 1 5 4 5-1 3-5-2-5-7v-2l-6-1v11h-6z" fill="#405161"/>
<path transform="translate(807,1022)" d="m0 0h15l5 3 2 3v6l-4 4h-2l4 7 3 5-3 1-4-2-6-9h-4l-1 10h-5l-1-4z" fill="#405161"/>
<path transform="translate(1033,960)" d="m0 0 2 1v14l-8 6-3 1h-10l-5-4-1-6 5-6 10-4z" fill="#FCFCFC"/>
<path transform="translate(1536,961)" d="m0 0h7l1 1v12l-5 5-6 3h-10l-5-4-1-6 5-6 10-4z" fill="#FCFCFC"/>
<path transform="translate(713,937)" d="m0 0 10 2 5 5 2 4v5l-4 1h-25l-3-1 1-6 5-6 5-3z" fill="#FCFCFC"/>
<path transform="translate(562,1022)" d="m0 0h6l5 12 3 7 8-19h6v28l-4 1-1-1v-21l-7 18-3 1-4-8-4-11v21l-4 1-1-1z" fill="#353D4B"/>
<path transform="translate(1420,1022)" d="m0 0h6l5 11 3 7 2-3 6-14 1-1h5v29l-5-1v-20l-7 17h-4l-7-17v20l-4 1-1-1z" fill="#343C4A"/>
<path transform="translate(1076,1022)" d="m0 0h6l4 8 4 11 5-12 4-7h5v28h-5v-20l-7 17-3 1-6-14-2-6v22h-5z" fill="#343D4A"/>
<path transform="translate(1251,1022)" d="m0 0h6l5 8 8 14v-22h5v28l-3 1-4-2-9-15-2-4-1 20-4 1-1-1z" fill="#415363"/>
<path transform="translate(670,1022)" d="m0 0h6l13 22v-22l5 1v27h-6l-9-14-4-6v20l-4 1-1-1z" fill="#405161"/>
<path transform="translate(1347,1022)" d="m0 0h6l4 9 7 18v2l-6-1-2-7h-12l-1 6-1 1h-5l3-11z" fill="#3C4B5A"/>
<path transform="translate(610,1022)" d="m0 0h6l4 9 6 16v4l-5-1-2-7h-12l-1 6-4 2h-2l2-9z" fill="#3B4958"/>
<path transform="translate(847,1022)" d="m0 0h6l5 11 5 14-1 4-4-1-2-7h-12l-2 7-5 1 1-7z" fill="#3E4D5D"/>
<path transform="translate(1588,1022)" d="m0 0h6l8 20 2 9-5-1-2-4v-3h-13l-1 7-3 1-2-1 2-9 7-18z" fill="#3C4B5A"/>
<path transform="translate(778,1022)" d="m0 0h11l4 2v3l-10-1-6 3-2 5 1 8 4 4h8l2-7h-7l1-4h10v12l-3 3-3 1h-8l-6-3-4-5-1-2v-9l4-7z" fill="#343C49"/>
<path transform="translate(1209,898)" d="m0 0h9l6 5 1 5-6 7-8 1-6-3-3-5 1-6z" fill="#FE4B06"/>
<path transform="translate(921,1025)" d="m0 0 6 2 3 4v10l-5 6h-7l-4-4-1-2v-10l4-5z" fill="#FCFCFC"/>
<path transform="translate(739,1022)" d="m0 0h19v4h-13v8h12v3l-12 2v7h14v4h-20z" fill="#3F505F"/>
<path transform="translate(1192,1022)" d="m0 0h10l5 3v2l-11-1-6 3-1 2v10l4 5h8l2-6 1-5h3v12l-3 3-10 1-7-3-4-5-1-2v-9l4-6 3-3z" fill="#343B49"/>
<path transform="translate(1462,1022)" d="m0 0h19v4l-13 1v6l11 1-1 4-10 1v7l14 1v3h-20z" fill="#405161"/>
<path transform="translate(998,1022)" d="m0 0h19v4l-13 1v6l12 1v3h-12v9l14 1v3h-20z" fill="#3F5060"/>
<path transform="translate(1220,1022)" d="m0 0h19v4h-14v8h12l-1 4h-11l1 8 13 1v3h-19z" fill="#3E4F5E"/>
<path transform="translate(1118,1022)" d="m0 0h19v4l-13 1v6l11 1v3l-12 1 1 8 13 1v3h-19z" fill="#3F505F"/>
<path transform="translate(1045,1022)" d="m0 0h19v4h-14v8h12v3l-12 1v9h14v3h-19z" fill="#3F4F5F"/>
<path transform="translate(1378,1022)" d="m0 0h10l5 3v2l-12-1-4 4 5 3 9 3 3 4-1 6-5 4-8 1-8-3v-4l6 2h8l2-1v-4l-12-5-3-3-1-4 3-5z" fill="#3D4D5C"/>
<path transform="translate(473,1022)" d="m0 0h9l5 3v2l-12-1-3 2-1 3 10 3 6 4 1 1v7l-5 4-9 1-7-3v-4l5 2h9l2-4-5-3-9-4-2-3 1-7z" fill="#333B48"/>
<path transform="translate(531,1022)" d="m0 0h18v4h-13v8h12v3l-12 2v8h14v3h-19z" fill="#3E4E5E"/>
<path transform="translate(425,1021)" d="m0 0 9 2 3 2v2l-12-1-3 2v3l14 6 2 6-3 5-6 3-9-1-4-2v-4l6 2h8l2-1v-4l-12-5-3-3v-6l5-5z" fill="#333B48"/>
<path transform="translate(879,1025)" d="m0 0 9 2 3 3 1 2v9l-5 5-2 1h-6l-1-1v-20z" fill="#FCFCFC"/>
<path transform="translate(1498,1026)" d="m0 0h8l4 2 2 4v9l-5 5-2 1h-6l-1-1z" fill="#FCFCFC"/>
<path transform="translate(1619,1022)" d="m0 0h9l5 3v2l-12-1-3 2v3l13 5 3 3v7l-5 4-8 1-8-3-1-2 1-2 5 2h11v-5l-14-6-2-3 1-6z" fill="#333A47"/>
<path transform="translate(1559,1021)" d="m0 0 7 1 3 2-1 4-5-2-6 1-4 4v10l2 4 2 1h7l6-1-2 4-5 2-9-1-6-5-2-5v-7l3-6 6-5z" fill="#3D4C5C"/>
<path transform="translate(1296,1022)" d="m0 0h10l4 2v3l-9-1-5 2-3 5v7l3 5 1 1h8l5-1-1 4-5 2-9-1-5-3-3-5v-10l3-6z" fill="#3F4F5F"/>
<path transform="translate(825,925)" d="m0 0h12l1 5-2 9-5 1h-7l-7 4-2 1-6-2 1-4 9-4 2-2 9-2 1-5h-6z" fill="#FE5D02"/>
<path transform="translate(969,1025)" d="m0 0 8 2 3 3 1 2v8l-3 5-5 2h-5l-1-3 1-18z" fill="#FCFCFC"/>
<path transform="translate(496,1022)" d="m0 0h24v4h-9v12l-1 12h-5l-1-23h-8z" fill="#405262"/>
<path transform="translate(704,1022)" d="m0 0h24l1 4-9 1-1 23-4 1-1-1-1-23-8-1z" fill="#405262"/>
<path transform="translate(1204,927)" d="m0 0h18v45h-1v-44h-16v62l7-1 2-2 5 1 3 2v3h-17l-1-2z" fill="#FE5F02"/>
<path transform="translate(962,1022)" d="m0 0h12v1l-5 1-1 22 4 2-3 2h-7z" fill="#405262"/>
<path transform="translate(1347,1022)" d="m0 0h6l3 6-2 4-3-4v-2h-2l-1 7-2 6h7v1h-8v2h7v1h-8l-1 6-1 1h-5l3-11z" fill="#343C49"/>
<path transform="translate(1590,1025)" d="m0 0 2 2 2 3 3-1 7 19v3l-5-1-2-4v-3l-6-3h-5l1-5z" fill="#3F5160"/>
<path transform="translate(1499,1023)" d="m0 0h11l5 4 2 4v10l-3 5-3 3-3 1h-8l-1-2 10-4 2-3v-9l-4-6-8-2z" fill="#353E4B"/>
<path transform="translate(820,1023)" d="m0 0h5l4 5v6l-4 4h-2l4 7 3 5-3 1-4-2-6-9-3-2 1-2 8-3 1-3-4-5z" fill="#405262"/>
<path transform="translate(847,1022)" d="m0 0h6l4 9-2 4h-2l-2-9h-2l-2 10-1 3 8 1v2h-9-3l-1-5z" fill="#343C4A"/>
<path transform="translate(449,1022)" d="m0 0h5v29l-5-1z" fill="#333A47"/>
<path transform="translate(1322,1022)" d="m0 0h5v28l-5 1z" fill="#3D4D5C"/>
<path transform="translate(1251,1022)" d="m0 0 5 1 1 6-1 21-4 1-1-1z" fill="#405161"/>
<path transform="translate(651,1022)" d="m0 0h5l1 2-1 26-4 1-1-1z" fill="#405262"/>
<path transform="translate(1529,1022)" d="m0 0h5v28l-3 1-2-1z" fill="#405161"/>
<path transform="translate(925,948)" d="m0 0h1l1 41 1 1h10v-2h4v-40h1v44l-1 1h-17z" fill="#FE5F02"/>
<path transform="translate(1420,1022)" d="m0 0h5v28l-4 1-1-1z" fill="#3D4C5B"/>
<path transform="translate(1076,1022)" d="m0 0h5v28h-5z" fill="#405262"/>
<path transform="translate(689,1022)" d="m0 0 5 1v27l-5-2-1-4 1-2z" fill="#405262"/>
<path transform="translate(562,1022)" d="m0 0h4l1 10v18l-4 1-1-1z" fill="#435464"/>
<path transform="translate(587,1022)" d="m0 0h3v28l-4 1-1-1v-16z" fill="#363F4D"/>
<path transform="translate(1100,1022)" d="m0 0h4v28h-5v-24z" fill="#405161"/>
<path transform="translate(610,1022)" d="m0 0h6l4 9v3l-5-2-2-6-3 10h-2l-2 5-2-1 2-9z" fill="#363F4D"/>
<path transform="translate(873,1023)" d="m0 0h6l-3 27h-3z" fill="#374250"/>
<path transform="translate(1204,1035)" d="m0 0h3v12l-3 3-10 1-4-1-3-5 2-4 4 5h8l2-6z" fill="#333B48"/>
<path transform="translate(1614,905)" d="m0 0h11v1h-10l1 82 3 3 4 2h-8l-1-2z" fill="#FE5F02"/>
<path transform="translate(1386,1037)" d="m0 0h6l2 3-1 6-5 4-8 1-8-3v-4l6 2h8l2-1v-6z" fill="#333B48"/>
<path transform="translate(1451,948)" d="m0 0h1v45h-18v-42h1l1 39 15 2z" fill="#FE5F02"/>
<path transform="translate(531,1023)" d="m0 0 5 1-3 1 1 22h16v3h-19z" fill="#323845"/>
<path transform="translate(812,1026)" d="m0 0h10l3 4-2 4-4 2-7-1z" fill="#FCFCFC"/>
<path transform="translate(1255,1022)" d="m0 0 4 2 11 20 3 5-1 2-4-2-9-15-4-11z" fill="#343D4A"/>
<path transform="translate(506,1028)" d="m0 0 1 2 4 2-1 18h-5v-21z" fill="#3E4F5E"/>
<path transform="translate(674,1023)" d="m0 0h3l11 19 2 6 2 2-5-1-8-13-5-10z" fill="#353D4B"/>
<path transform="translate(1155,1026)" d="m0 0h9l3 2v5l-6 3-6-1z" fill="#FCFCFC"/>
<path transform="translate(1588,1022)" d="m0 0h6l2 4v4l-3 1-2-4-4 9-3 2-1-5 4-10z" fill="#353E4C"/>
<path transform="translate(1559,1021)" d="m0 0 7 1 3 2-1 4-5-2-11 1-2 4-2 3-2-1 3-6 6-5z" fill="#343C4A"/>
<path transform="translate(1346,1033)" d="m0 0 1 3-1 3h7v1h-8v2h7v1h-8l-1 6-1 1h-5l3-11 2-5 2 4z" fill="#3F5060"/>
<path transform="translate(1296,1022)" d="m0 0h10l4 2v3l-9-1-5 2-5 3-1-3 2-4z" fill="#353E4B"/>
<path transform="translate(1445,1024)" d="m0 0 2 2 1 13v12l-5-1z" fill="#333A47"/>
<path transform="translate(820,1023)" d="m0 0h5l4 5v6l-4 4h-6l5-6-2-5z" fill="#343C49"/>
<path transform="translate(1290,1043)" d="m0 0 6 2 1 1h8l5-1-1 4-5 2-9-1-4-4z" fill="#343C4A"/>
<path transform="translate(1187,1029)" d="m0 0h2v16 2l1 2-4-2-4-6v-9h1l1 3 2-1z" fill="#405262"/>
<path transform="translate(714,1026)" d="m0 0 4 1v23h-4z" fill="#36404E"/>
<path transform="translate(1590,1025)" d="m0 0 2 2 3 9v4h-9l1-5z" fill="#FCFCFC"/>
<path transform="translate(1221,901)" d="m0 0 3 2 1 5-6 7-8 1 3-2h2l-1-4 2-2 2 1 1-5z" fill="#FE5F02"/>
<path transform="translate(1221,1032)" d="m0 0h1l1 15h16v3h-19z" fill="#323845"/>
<path transform="translate(1378,1022)" d="m0 0h10l5 3v2l-12-1-8 3 1-4z" fill="#343C4A"/>
<path transform="translate(613,1025)" d="m0 0 2 3 2 7v4h-8l2-9z" fill="#FCFCFC"/>
<path transform="translate(532,948)" d="m0 0h1l1 41 5 2 7 1v1h-14z" fill="#FE5F02"/>
<path transform="translate(1349,1026)" d="m0 0h2l3 10-1 4-7-1 2-9z" fill="#FCFCFC"/>
<path transform="translate(849,1026)" d="m0 0h2l3 10v3h-8l2-10z" fill="#FCFCFC"/>
<path transform="translate(1425,1022)" d="m0 0 2 1 7 17 3 1-5 1-1-3h-2l-4-9z" fill="#37414F"/>
<path transform="translate(1554,1045)" d="m0 0 3 1h7l6-1-2 4-5 2-9-1-2-4z" fill="#343B49"/>
<path transform="translate(907,1032)" d="m0 0h3l2 10 3 1 1 3h-3v3l-5-6-1-3z" fill="#3E4F5E"/>
<path transform="translate(1099,1022)" d="m0 0 1 4-4 12-3 4h-2l3-10z" fill="#363F4D"/>
<path transform="translate(983,1040)" d="m0 0 2 1-1 4-5 4-2 1h-8l4-4 9-4z" fill="#353E4B"/>
<path transform="translate(875,1024)" d="m0 0h4l-3 25h-1z" fill="#405262"/>
<path transform="translate(757,1046)" d="m0 0h2v4h-19l1-2z" fill="#323946"/>
<path transform="translate(594,927)" d="m0 0h10v1l-7 2 1 7v3h-4z" fill="#FE5F02"/>
<path transform="translate(1270,1022)" d="m0 0 4 2-1 2-1 16h-2z" fill="#37414F"/>
<path transform="translate(614,1022)" d="m0 0 3 1 3 8v3l-5-2z" fill="#333B48"/>
<path transform="translate(784,1035)" d="m0 0h10l-3 1 1 4-2 4v-5h-7z" fill="#3D4C5B"/>
<path transform="translate(1164,1023)" d="m0 0 5 1 3 4-2 4-6-5-1-3z" fill="#343D4A"/>
<path transform="translate(823,1042)" d="m0 0 3 1 4 7-3 1-4-2-1-6z" fill="#353D4B"/>
<path transform="translate(506,1028)" d="m0 0 1 2 3 1-1 8h-2l-1 3-1-13z" fill="#323845"/>
<path transform="translate(1163,1043)" d="m0 0h5l4 5-1 3-5-2-3-4z" fill="#333B48"/>
<path transform="translate(840,1041)" d="m0 0 3 4-1 5-5 1 1-7z" fill="#353E4C"/>
<path transform="translate(453,1025)" d="m0 0h1v14h-3v-12z" fill="#415363"/>
<path transform="translate(602,1042)" d="m0 0h3l1 7-4 2h-2z" fill="#343D4A"/>
<path transform="translate(608,1036)" d="m0 0 1 3h6v1h-7v2h7v1h-8v3h-2v-4h-2v-2h3z" fill="#415363"/>
<path transform="translate(1445,1022)" d="m0 0h3v17h-1l-1-13-1 10h-1l-1-10z" fill="#3F5060"/>
<path transform="translate(537,1034)" d="m0 0h11v3l-11 1-1-2z" fill="#323845"/>
<path transform="translate(1100,949)" d="m0 0h1l1 14-1 8h-1l-1-5v-13z" fill="#FE5F02"/>
<path transform="translate(1340,1041)" d="m0 0 2 1 1 7-1 1h-5z" fill="#323946"/>
<path transform="translate(1006,1047)" d="m0 0h12v3h-10v-2z" fill="#343C49"/>
<path transform="translate(1587,1039)" d="m0 0 8 1 1 2-2 1h-7l-2-2z" fill="#37414F"/>
<path transform="translate(1129,1034)" d="m0 0h6v3h-11l1-2z" fill="#323946"/>
</svg>
